<?xml version="1.0" standalone="no"?>
<!DOCTYPE svg PUBLIC "-//W3C//DTD SVG 1.1//EN" "http://www.w3.org/Graphics/SVG/1.1/DTD/svg11.dtd" >
<svg xmlns="http://www.w3.org/2000/svg" xmlns:xlink="http://www.w3.org/1999/xlink" version="1.1">
<metadata>
Created by FontForge 20200314 at Mon Jan 22 06:27:25 2007
 By Unknown
Iravith Aranil (c) VALERAN 2006. All Rights Reserved
</metadata>
<defs>
<font id="InheritanceFont" horiz-adv-x="1139" >
  <font-face 
    font-family="Inheritance Font"
    font-weight="400"
    font-stretch="normal"
    units-per-em="2048"
    panose-1="2 0 0 0 0 0 0 0 0 0"
    ascent="1638"
    descent="-410"
    x-height="1695"
    cap-height="1692"
    bbox="-909.485 -433.61 2824 1836"
    underline-thickness="150"
    underline-position="-292"
    unicode-range="U+0020-F005"
  />
<missing-glyph horiz-adv-x="1124" 
 />
    <glyph glyph-name=".notdef" horiz-adv-x="1124" 
 />
    <glyph glyph-name=".null" horiz-adv-x="0" 
 />
    <glyph glyph-name="nonmarkingreturn" horiz-adv-x="569" 
 />
    <glyph glyph-name="space" unicode=" " horiz-adv-x="569" 
 />
    <glyph glyph-name="quotedbl" unicode="&#x22;" horiz-adv-x="397" 
d="M143 1836q116 -16 135 -134.5t-278 -588.5q77 456 49.5 498t-34.5 71v23q0 131 128 131zM149 1741v-12l23 -23h35v12q-17 46 -35 46z" />
    <glyph glyph-name="quotesingle" unicode="'" horiz-adv-x="397" 
d="M143 1836q116 -16 135 -134.5t-278 -588.5q77 456 49.5 498t-34.5 71v23q0 131 128 131zM149 1741v-12l23 -23h35v12q-17 46 -35 46z" />
    <glyph glyph-name="comma" unicode="," horiz-adv-x="569" 
 />
    <glyph glyph-name="hyphen" unicode="-" horiz-adv-x="682" 
 />
    <glyph glyph-name="period" unicode="." horiz-adv-x="569" 
 />
    <glyph glyph-name="slash" unicode="/" horiz-adv-x="569" 
 />
    <glyph glyph-name="colon" unicode=":" horiz-adv-x="569" 
 />
    <glyph glyph-name="semicolon" unicode=";" horiz-adv-x="569" 
 />
    <glyph glyph-name="less" unicode="&#x3c;" horiz-adv-x="1196" 
 />
    <glyph glyph-name="greater" unicode="&#x3e;" horiz-adv-x="1196" 
 />
    <glyph glyph-name="question" unicode="?" 
 />
    <glyph glyph-name="A" unicode="A" horiz-adv-x="2421" 
d="M1158 1695q20 0 20 -38l11 -13h124l93 13q51 -16 51 -38q0 -26 -196 -64q0 -63 -21 -63l590 -1145q0 -109 165 -127q31 0 79 -29q-70 -47 -141 -47l21 -51q242 -16 258 -76v-13l-21 -25l-144 25l-73 -12l-134 12h-103q-57 0 -83 51v25l124 13q-21 134 -310 598
q-66 178 -83 178h-506q-248 -268 -248 -433q0 -220 -145 -343l166 -3l-21 -61l-103 -33l-82 9l-83 17l-210 -15l-144 27q-6 21 -9 46l21 26h134l155 229l64 117q87 175 277 544q215 248 341 534h-113l-21 25q50 89 114 89h134zM1199 1479v-13q52 -207 83 -216v13l-73 216
h-10zM1127 1364q0 -50 -197 -356v-12l11 12h10l372 13l-145 305l-41 38h-10zM1065 932v-13h299v13l-10 13v13q-94 -26 -289 -26zM1416 958v-13q76 -182 176 -318v25q-107 254 -176 306zM403 296l10 -63h11q93 80 93 165q-49 -21 -114 -102zM1747 335v-13l93 -216h31v12
q-105 212 -124 217zM238 93h10l62 25l21 128zM444 157v-13h21l52 51v51zM382 118v-12h21v12h-21z" />
    <glyph glyph-name="B" unicode="B" horiz-adv-x="1603" 
d="M117 1694h10q141 0 175 -34l68 -141q-19 -108 -19 -282v-192h19l-39 -140l-19 -26v-153l30 -452l33 -118l109 -109v-43l-122 -1q-38 2 -88 2h-235v26q59 72 78 140q30 0 30 243l9 244l-19 76v154l19 141v281l20 128q-77 141 -156 141l-20 38v13q0 31 117 64zM888 849
l71 -3q-64 11 -71 3zM193 438l-5 -284l23 -23q-7 43 -18 307zM343 92q117 -43 74 -14t-74 14zM681 1703q280 0 537 -211q30 -36 70 -292q0 -156 -292 -308q-151 -65 -431 -65h-315l-24 32l35 65v179l-35 308v32l12 82q-35 0 -35 32v97l12 17v16l11 -16h269zM366 1541v-568
l-11 -16v-16l11 -17h117l128 33h140q222 111 222 259v81q-83 156 -210 179q-108 65 -198 65h-199zM285 1492v-65l23 33v32h-23zM777 1638q210 -47 319 -217q-68 98 -108 138.5t-65 57.5t-146 21zM285 1411v-114l23 33l-12 81h-11zM1035 1160l-10 -16q4 -110 -135 -179
l134 65q61 101 41 112zM270 1496v82l-72 46l47 -71l-16 -134zM181 1560l-33 32l-53 13l34 -18l80 -100zM1003 28l79 -3q-71 11 -79 3zM788 952q317 0 608 -228q34 -39 79 -316q0 -168 -331 -333q-171 -70 -488 -70h-356l-27 35l39 70v194l-39 333v34l13 89q-39 0 -39 34v105
l13 19v17l13 -17h304zM427 743v-587l-13 -17v-16l13 -18h129l141 34h155q245 115 245 268v84q-92 161 -232 185q-119 67 -219 67h-219zM337 692v-67l26 34v33h-26zM881 843q231 -48 351 -225q-74 102 -118.5 143.5t-72 59.5t-160.5 22zM337 609v-118l26 34l-14 84h-12z
M1165 349l-10 -17q4 -113 -150 -184l148 66q68 105 46 117zM321 696v85l-80 48l52 -74l-18 -138z" />
    <glyph glyph-name="C" unicode="C" horiz-adv-x="1798" 
d="M1464 1710l65 -86l-22 -54q132 -45 96 -195l-65 -16l-95 90l-55 -11l-247 29v-14l44 20v-14q-21 -56 -43 -56h-44q-47 42 -154 80v14q-214 -42 -410 -140q-142 -184 -142 -223q0 -33 -51 -121q-44 -75 -22 -244q67 -479 280.5 -534.5t284 -75t263 31.5t401.5 307l88 14
q-25 -68 -46 -303l-45 -215l-64 17l-14 126l-166 -56q-171 -95 -381 -93q-314 -6 -730 244l-29 42v28l29 28l59 -14q-249 164 -249 669q134 344 424 599q127 98 191 98q197 47 268.5 49t293.5 -32l139 -33q117 -106 148 44zM601 136v-11l193 -67l130 36q-114 -5 -187 16z
M541 1522q65 40 245 83l-203 -17l-169 -115l3 -11zM887 978q170 -19 170 -141q-50 -113 -239 -113q-110 36 -119 71v27q0 156 188 156zM809 866v-15l33 -27h52v14q-26 55 -52 55z" />
    <glyph glyph-name="D" unicode="D" horiz-adv-x="1899" 
d="M302 1693q91 0 91 -87q495 106 896.5 -6t471.5 -657q0 -473 -799 -811l-571 -97h-90l-120 -35h-150l-31 35q94 205 206 238l30 -70l245 16l5 200q0 211 60 612v17l-45 175v244q-123 -69 -425 -174l-15 17v18zM594 1416l9 -353h10l19 412h-19q-19 0 -19 -59zM722 1467
v-786l-35 -448q101 6 167.5 38t283 216t234.5 415q-17 146 -40 198.5t-128.5 160t-218 157t-217.5 49.5h-46zM1349 1358q204 -235 233.5 -357t-161.5 -422q220 252 197 421v35q-37 69 -86.5 128t-182.5 195zM1234 1543l82 -54q73 -72 127 -106q-64 52 -89.5 82t-119.5 78z
M582 223h26l13 575q-39 -274 -39 -575zM1198 379l-77 -44l89 38l86 68zM1023 987q96 -14 96 -106q-28 -85 -134 -85q-61 28 -67 53v21q0 117 105 117zM966 881v-11l19 -21h29v11q-15 42 -29 42z" />
    <glyph glyph-name="E" unicode="E" horiz-adv-x="1693" 
d="M146 1689h12q175 0 267 -38l412 12h25l424 -25h73q85 0 85 -141q27 0 49 -89q-12 -90 -37 -90q-61 78 -230 166h-122l-109 39l-291 -13h-194q-25 -108 -25 -282v-192h25l206 -38q57 0 243 115h48v-13q-48 -84 -48 -166q0 -42 60 -102q0 -26 -36 -26q-188 90 -291 90h-231
l-24 -26v-153l-12 -448q151 -90 267 -90q153 39 497 51q98 35 255 218h49l24 -26l-36 -102v-38l24 -103q-9 -141 -49 -141l-157 77q-110 -38 -116 -31.5t-18 6.5q-76 -52 -158 -52l-145 13l-207 -25l-157 12h-49q-46 -38 -109 -38h-291v26q72 72 97 140q36 0 36 243l12 244
l-24 76v154l24 141v281l24 128q-95 141 -194 141l-24 38v13q0 31 146 64zM106 1586q2 37 -36.5 38t36.5 -38zM437 1587q-40 -10 48 -13q60 5 -48 13zM189 1539l29 -55q24 -15 13 26zM891 930l6 65q-17 -35 -31.5 -40.5t25.5 -24.5zM510 961l75 -8l71 -3q-64 11 -113 24
q-24 0 -33 -13zM218 283q0 -65 13 -96q0 56 -13 96zM438 179l-28 -21l55 7q9 22 -27 14zM788 118q37 -3 104 -3t127.5 13t128.5 35q-177 -9 -360 -45zM175 58q68 32 68 44.5t-6 12.5t-62 -57zM515 100q128 2 176 15q-145 0 -176 -15z" />
    <glyph glyph-name="F" unicode="F" horiz-adv-x="1603" 
d="M146 1689h12q175 0 267 -38l412 12h25l424 19h73q85 0 85 -141q27 0 49 -89q-12 -90 -37 -90q-61 78 -230 166h-122l-152 20l-248 -38h-230q-25 -108 -25 -282v-192h25l242 -38q57 0 243 115h48v-13q-48 -84 -48 -166q0 -42 60 -102q0 -26 -36 -26q-188 90 -291 90h-231
l-24 -26v-153q-24 -517 22 -547.5t147 -145.5l1 -22l-85 -4q-119 2 -182 2h-291v26q72 72 97 140q36 0 63 243l12 244l-24 76v154l24 141v281l-3 128q-95 141 -194 141l-24 38v13q0 31 146 64zM106 1586q2 37 -36.5 38t36.5 -38zM437 1590q-180 13 48 -16q60 5 -48 16z
M189 1539l29 -55q24 -15 13 26zM891 930l6 65q-17 -35 -31.5 -40.5t25.5 -24.5zM510 961l75 -8l71 -3q-64 11 -113 24q-24 0 -33 -13zM128 41q115 49 120.5 66.5t-24.5 -6.5t-96 -60z" />
    <glyph glyph-name="G" unicode="G" horiz-adv-x="1828" 
d="M1464 1723l65 -86l-22 -53q132 -45 98 -139l-68 -56v-14l102 -98l-29 -28q-130 0 -261 216l42 1l34 10l-65 -1l-219 5v-14l44 20v-14q-21 -56 -43 -56h-44q-47 42 -132 42v14q-214 -42 -410 -139q-205 -185 -205 -223q0 -33 -73 -84q-44 -75 -58 -293q114 -319 380 -446
q235 -69 439 -69h73q44 0 44 153v349h-14l-278 -42l-44 55v42q0 56 351 84h29l73 -14q295 0 439 70l15 -14v-14q0 -140 -278 -140l-44 -14v-13l-29 -307v-126q0 -97 58 -97l73 -14v-28l-58 -56q58 -83 58 -125q0 -28 -43 -28q-84 0 -161 153l-23 -102l-39 10l-41 78
l-267 -58q-327 -25 -743 226l-29 41v28l29 28l59 -14q-249 164 -249 669q134 345 424 600q127 97 191 97h278q79 0 141 -41l105 -33l164 -9q130 -39 161 111zM1299 737v-132h14l15 132h-29zM1208 387v-140h15l14 112l-14 28h-15zM567 166v-11l193 -67l201 36
q-185 -4 -258 17zM1509 1483l-55 -30l42 -34z" />
    <glyph glyph-name="H" unicode="H" horiz-adv-x="1798" 
d="M25 1692l303 -13h149l24 -27l-2 -72l-14 -14q-88 1 -120 -61v-41l-12 -843q51 -232 38.5 -258.5t7.5 -96.5t97 -164l45 -44l-15 -52l-103 -1l-192 9l-149 -13q-56 26 -61 53v14q123 112 123 201q-45 132 4 740q-37 255 -37 455q-6 108 -99 108l-12 13v67zM21 1632l179 12
l-126 21q-46 0 -53 -33zM131 1534l12 -155q28 140 -12 155zM338 1044l1 313q5 211 -13 101t12 -414zM169 1000q-32 -263 37 -471q11 298 -37 471zM118 82q16 -35 83 177q-24 0 -83 -177zM1187 1687l303 -13h149l24 -27l-2 -72l-14 -14q-88 1 -120 -61v-41l-12 -843
q51 -232 38.5 -258.5t7.5 -96.5t97 -164l45 -44l-15 -52l-103 -1l-192 9l-149 -13q-56 26 -61 53v14q123 112 123 201q-45 132 4 740q-37 255 -37 455q-6 108 -99 108l-12 13v67zM1201 1626l189 22l-154 12q-25 0 -35 -34zM1285 1565l17 -157q31 106 -17 157zM1500 730
l11 684q-41 36 -44.5 -17.5t33.5 -666.5zM1367 849q-67 -66 -12 -566q24 539 12 566zM1505 262q0 -85 148 -183q-127 183 -148 183zM302 1024l2 -13l25 15l395 22l54 4l145 -13l54 5q378 22 410 -33l17 -112q5 -61 -90 -103l-36 -3l-570 29l-36 -3l-53 -18l-45 9l-99 -8
q-256 -1 -178 77l-91 110zM401 961q43 2 46 -27l379 38l457 -16l23 44l-216 16l-690 -40z" />
    <glyph glyph-name="I" unicode="I" horiz-adv-x="747" 
d="M25 1692l303 -13h149l24 -27l-2 -72l-14 -14q-88 1 -120 -61v-41l-12 -843q51 -232 38.5 -258.5t7.5 -96.5t97 -164l45 -44l-15 -52l-103 -1l-192 9l-149 -13q-56 26 -61 53v14q123 112 123 201q-45 132 4 740q-37 255 -37 455q-6 108 -99 108l-12 13v67zM47 1640l178 12
l-151 13q-25 0 -27 -25zM131 1534l21 -148q39 133 -21 148zM315 1006l29 508q-47 -42 -47 -93t18 -415zM198 953q-59 -302 15 -792q22 666 -15 792zM343 267q25 -55 69 -158q-48 158 -69 158z" />
    <glyph glyph-name="J" unicode="J" horiz-adv-x="1511" 
d="M1376 1648v-67l-13 -14q-93 0 -98 -107q0 -201 -38 -455q46 -565 0 -697q-22 -229 -79.5 -306t-154.5 -117l-120 -60q47 -46 -334 -20q-136 22 -297.5 128t-163.5 340q-78 238 4 349l50 42l21 -96q-39 -64 37 -273l54 -129q240 -238 412 -207t238 110.5t82.5 158t4 140
t42.5 249.5l-13 843v40q-32 63 -120 62l-14 14l-2 72l25 27h148l304 13zM1302 1661l-69 -16l93 2q0 14 -24 14zM1200 1446l44 84q-39 -15 -44 -84zM1054 1381l-2 -199q16 162 16 215.5t-14 -16.5zM1148 694q5 43 4 150q-11 -27 -4 -150zM1154 166q10 69 10 204
q-23 0 -10 -204zM886 -135q-209 -22 -405 30q119 -41 185 -48.5t220 18.5zM378 -27l-119 76l-86 116l33 -61q31 -80 172 -131z" />
    <glyph glyph-name="K" unicode="K" horiz-adv-x="1766" 
d="M25 1692l303 -13h149l24 -27l-2 -72l-14 -14q-88 1 -120 -61v-41l-12 -843q51 -232 38.5 -258.5t7.5 -96.5t97 -164l45 -44l-15 -52l-103 -1l-192 9l-149 -13q-56 26 -61 53v14q123 112 123 201q-45 132 4 740q-37 255 -37 455q-6 108 -99 108l-12 13v67zM49 1652l94 -2
l-69 15q-25 0 -25 -13zM131 1534l45 -83q-5 68 -45 83zM324 1186l-2 199q-14 70 -14 16.5t16 -215.5zM205 854q-1 -107 1 -325q66 394 -1 325zM343 267q25 -55 69 -158q-48 158 -69 158zM1091 1490l61 20l8 10q-30 15 -204 -111l-8 -10zM491 949l284 186q-218 -96 -284 -186
zM485 934l302 -326l353 -278l189 -222h142l22 -25q-3 -26 -10 -46l-152 -27l-222 15l-88 -18l-87 -9l-109 33l-22 62l176 2q-144 152 -330 372l-364 324zM1155 234l-160 98l150 -142l106 -98h12zM796 370l172 -176l55 -51h22v13zM1088 118v-13h22v13h-22zM254 872
q617 497 728 600.5t-73 112.5l22 45l2 34l87 -7h88l222 -2l152 -2q7 -33 10 -52l-22 -19q-173 -2 -306 -168l-92 -68l-779 -631z" />
    <glyph glyph-name="L" unicode="L" horiz-adv-x="1603" 
d="M25 1688l303 -13h149l24 -27l-2 -72l-14 -14q-88 1 -120 -62v-40l-12 -843q55 -188 42.5 -215t7.5 -96.5t58 -102.5l527 8l145 -26l103 30q69 18 185 160h12l25 -26q-65 -300 -160 -348l-198 26l-865 27l-149 -13q-56 26 -61 53v14q123 112 123 200q-45 132 0 697
q-37 254 -37 455q-6 107 -99 107l-12 14v67zM49 1647l94 -2l-69 16q-25 0 -25 -14zM131 1530l45 -84q-5 69 -45 84zM324 1182l-2 199q-14 70 -14 16.5t16 -215.5zM223 844q-1 -107 5 -150q7 123 -5 150zM272 442q0 -67 5 -101q7 101 -5 101zM744 139l279 1q-41 15 -75 14.5
t-204 -15.5z" />
    <glyph glyph-name="M" unicode="M" horiz-adv-x="2599" 
d="M1390 617l51 38l-182 -261l-42 -49l-221 256q-97 97 -133 232q-95 42 -122 178l-71 117l-144 253h-14l-26 -640l-13 -13h-13l26 -253v-53l-13 -213q0 -46 144 -80l106 -40l13 -14v-13q-19 -79 -79 -79l-239 18h-78l-274 8q-60 26 -66 53v13l39 40h145q118 96 118 214v133
l-13 133q13 138 66 293v27q-13 146 13 253v26q-40 147 13 347q-131 0 -131 40v13l26 27l-13 66v13l131 -13h171q48 0 118 -53l79 27l13 -14v-26q0 -54 -171 -54q0 -28 171 -186q0 -90 302 -506l237 -240zM434 1647q39 -40 144 -2zM355 1634v-13h26v13h-26zM389 1422
q-4 -85 -4 -116.5t15 -262.5l7 324zM453 1000l-53 -300l21 -429l20 71l9 158l-3 100zM2181 5q-379 -21 -379 9v41q0 26 40 26l108 9q-43 169 -71 597l-36 718l53 181q70 54 102 54h14q66 31 110 -229l50 -371l26 -213v-80l13 -586l-13 -40h13q59 -24 106 -24l82 9l53 -53
l-39 -40q-120 -9 -232 -8zM2010 616q-21 427 -52 548l6 -304l52 -727q25 126 23 169.5t-29 313.5zM1174 558l218 213l250 380l77 170q89 207 89 236q-171 0 -171 53v27l13 13l79 -27q70 54 118 54h171l131 13v-13l155 14l-40 -118l-101 -3q0 -40 -132 -40l-131 -160h-13
l-145 -253l-70 -117l-108 -195q-51 -117 -268 -274q-79 -186 -165 83z" />
    <glyph glyph-name="N" unicode="N" horiz-adv-x="2109" 
d="M1463 1709q442 -9 442 -66v-14q0 -26 -41 -26l-276 -13q41 -171 96 -253v-146l14 -66l-14 -80v-53l83 -836v-53q-35 -146 -69 -146h-14q-35 0 -262 279q-166 120 -249 305q-228 156 -266 291q-101 41 -129 176l-74 117l-152 252h-14l-27 -637l-14 -13h-14l28 -252v-53
l-14 -213q0 -45 152 -79l110 -40l14 -14v-13q-19 -79 -83 -79l-248 66q-18 -66 -42 -66h-13q-28 0 -28 66l-290 -40q-63 26 -69 53v13l41 40h152q125 95 125 213v132l-14 133q14 137 69 292v27l-14 146l28 106v26l-42 146l55 199q-138 0 -138 40v14l28 26l-14 66v14l138 -14
h180q50 0 124 -53l83 27l13 -13v-27q0 -53 -179 -53q0 -28 179 -186q0 -90 318 -504l248 -239l97 -66v79l-28 213v79l-13 584l13 40h-13q-103 -66 -152 -66h-193l-56 53l42 40h138q93 0 248 119zM456 1643l41 -40v40h-41zM373 1629v-13h27v13h-27zM400 1390l-13 -53
q17 -66 41 -66v93zM1546 1364v-650l28 -200l41 27l-41 425l14 358q-28 0 -28 40h-14zM400 541v-226l28 27v133l-14 66h-14z" />
    <glyph glyph-name="O" unicode="O" horiz-adv-x="1798" 
d="M660 1787l258 -44l144 14q71 -10 71 -44l-14 -15v-14q220 -124 402 -635v-119l-15 -73l29 -296q-72 -273 -215 -369q-188 -124 -517 -177l-71 -15h-259q-416 107 -463 542q-10 93 -10 196v74q42 532 129 532q47 0 115 148q205 251 272 251zM617 281q393 0 574 177
q91 10 172 118v89q0 589 -459 945h-58q-115 0 -454 -352q-43 -115 -57 -295q-66 0 -45.5 -214t92 -272.5t235.5 -195.5zM974 1663v-15l33 -36l74 -17l-61 73zM1136 1566q271 -443 271 -562h28v68q-138 324 -299 494zM172 384v-15q0 -128 316 -266l71 -14h144q0 38 -316 103
q-201 135 -201 192h-14zM789 177v-15l96 -39q265 39 443 204t122 424q-81 -583 -661 -574zM686 1102q138 -18 138 -140q-41 -112 -194 -112q-89 37 -97 71v27q0 154 153 154zM586 984v-17l39 -32h58v17q-29 64 -58 64z" />
    <glyph glyph-name="P" unicode="P" horiz-adv-x="1491" 
d="M117 1694h10q141 0 175 -34l68 -141q-19 -108 -19 -282v-192h19l-39 -140l-19 -26v-153l30 -452l33 -118l109 -109v-43l-122 -1q-38 2 -88 2h-235v26q59 72 78 140q30 0 30 243l9 244l-19 76v154l19 141v281l20 128q-77 141 -156 141l-20 38v13q0 31 117 64zM193 438
l-5 -284l23 -23q-7 43 -18 307zM343 92q117 -43 74 -14t-74 14zM681 1703q280 0 537 -211q30 -36 70 -292q0 -156 -292 -308q-151 -65 -431 -65h-315l-24 32l35 65v179l-35 308v32l12 82q-35 0 -35 32v97l12 17v16l11 -16h269zM366 1541v-568l-11 -16v-16l11 -17h117l128 33
h140q222 111 222 259v81q-83 156 -210 179q-108 65 -198 65h-199zM285 1492v-65l23 33v32h-23zM1005 1533q181 -115 224 -313q-29 115 -53 167t-41.5 76.5t-129.5 69.5zM285 1411v-114l23 33l-12 81h-11zM967 1018l-14 -12q-35 -105 -189 -122l148 15q92 74 77 92zM270 1496
v82l-72 46l47 -71l-16 -134zM181 1560l-33 32l-53 13l34 -18l80 -100z" />
    <glyph glyph-name="Q" unicode="Q" horiz-adv-x="1823" 
d="M765 1782l178 -39l144 14q277 -197 459 -708v-119l28 -73l-14 -296q-72 -273 -215 -369q-188 -124 -517 -177l-71 -15h-259q-416 107 -463 542q-10 93 -10 196v74q-25 310 73 446q100 152 171 234q118 174 273 251zM642 281q393 0 574 177q91 10 172 118v89
q0 589 -459 945h-58q-115 0 -453 -352q-44 -115 -105 -206q-35 -207 -6.5 -362t100 -213.5t235.5 -195.5zM999 1663v-15l33 -36l75 -17l-62 73zM1161 1566q272 -443 272 -562h27v68q-138 324 -299 494zM217 742l-8 -13q-64 -111 141 -388l54 -49l125 -71q19 33 -222 247
q-106 218 -78 267zM1152 255l28 -11q141 -3 246 122.5t50 384.5q-82 -583 -324 -496zM980 949q138 -18 138 -140q-41 -112 -194 -112q-89 37 -97 71v27q0 154 153 154zM895 825v-17l39 -32h58v17q-29 64 -58 64zM1220 -66q3 -91 110 -194l13 -56q257 -16 273 -75v-13
l-22 -25l-153 25l-76 -12l-142 12h-110q-59 0 -98 30l11 45l89 23l-86 205q-102 118 -200 374q288 19 212 -22zM1124 -78v-12l99 -213h32v12q-111 209 -131 213z" />
    <glyph glyph-name="R" unicode="R" horiz-adv-x="1509" 
d="M775 921v-17q324 -117 368 -357q178 -240 171 -355q82 -116 80 -290q204 -86 301 -166l144 -17q240 11 218 70t32 123.5t127.5 55t99 -45.5t53.5 -111q-59 -131 -126 -163t-177 -62l-124 27l-146 -35q-196 84 -311 116q-281 244 -323.5 381t-72.5 314l-104 101l-119 108
q-105 258 -578 231l51 156zM1255 108l41 -52h17q0 26 -58 52zM117 1694h10q141 0 175 -34l68 -141q-19 -108 -19 -282v-192h19l-39 -140l-19 -26v-153l30 -452l33 -118l109 -109v-43l-122 -1q-38 2 -88 2h-235v26q59 72 78 140q30 0 30 243l9 244l-19 76v154l19 141v281
l20 128q-77 141 -156 141l-20 38v13q0 31 117 64zM888 849l71 -3q-64 11 -71 3zM193 438l-5 -284l23 -23q-7 43 -18 307zM343 92q117 -43 74 -14t-74 14zM681 1703q280 0 537 -211q30 -36 70 -292q0 -156 -292 -308q-151 -65 -431 -65h-315l-24 32l35 65v179l-35 308v32
l12 82q-35 0 -35 32v97l12 17v16l11 -16h269zM366 1541v-568l-11 -16v-16l11 -17h117l128 33h140q222 111 222 259v81q-83 156 -210 179q-108 65 -198 65h-199zM285 1492v-65l23 33v32h-23zM777 1638q210 -47 319 -217q-68 98 -108 138.5t-65 57.5t-146 21zM285 1411v-114
l23 33l-12 81h-11zM1035 1160l-10 -17q4 -109 -135 -178l134 64q61 102 41 113zM270 1496v82l-72 46l47 -71l-16 -134zM181 1560l-33 32l-53 13l34 -18l80 -100z" />
    <glyph glyph-name="S" unicode="S" horiz-adv-x="1393" 
d="M923 1703l37 -55l30 -62l-11 -13v-13q23 0 25 -93l-14 -37l45 -129v-26l-22 -26h-11q-59 204 -237 234q-184 97 -386 91.5t-294 -116t-32.5 -240.5t499.5 -250q578 -201 667 -364t64 -381q-65 -347 -267 -470t-541 -177q-692 -63 -1076 287t-290 477q-3 89 43 168
q152 -393 103 -214q478 -588 945 -562t624.5 181t175.5 340t-192 327.5t-547 260t-402 291.5t8 294.5t208 175.5t308 75q192 0 315.5 -45.5t165.5 -13.5t59 85zM778 766q349 -187 318 -613q77 470 -318 613zM768 -272q499 188 406 675q44 -471 -406 -675zM-482 -107
q164 -178 393 -202q-210 51 -393 202zM423 366q146 -14 146 -107q-43 -86 -205 -86q-94 28 -102 54v21q0 118 161 118zM335 259v-11l29 -21h44v11q-22 42 -44 42z" />
    <glyph glyph-name="T" unicode="T" horiz-adv-x="1601" 
d="M53 1655h1335l40 -42v-198q-20 -155 -66 -155q-79 44 -79 170l-14 14l-27 7q-54 20 -65 49h-66l-225 17l-27 -45v-550l-26 -606l13 -211l49 -17q126 -11 136 -67q-47 -24 -126 -24h-449l-73 9v29q0 42 186 56q39 258 39 437l-13 84l13 85l-13 733q0 59 -53 98l-132 -14
h-146q-109 -67 -211 -197h-13l-40 42v42q3 71 26 71l-13 14v127zM1243 1585l92 -71q-13 85 -92 71zM62 1458q35 97 112 113l-2 -1q-117 46 -110 -112zM691 1505l-9 -58l-5 -272l14 -311h4l10 195l-5 427l-5 19h-4zM1362 1379l14 -83l10 38l-12 45h-12zM742 535l-8 -143v-306
h30l-15 449h-7z" />
    <glyph glyph-name="U" unicode="U" horiz-adv-x="2295" 
d="M1201 -149q-272 -8 -485 115q-309 229 -412 552t-43 614l-59 356l-199 5q-3 59 4 80l152 27l222 -15l88 17l87 10l109 -34l22 -61l-176 -3q-72 -74 -30 -624q35 -336 226 -520q74 -193 261.5 -299.5t307 -112.5t294 223.5t228 438.5t92.5 499q32 281 -100 366l-212 13
l-10 68q28 51 87 51h110l118 -7l100 7l153 25l22 -25v-13q-16 -60 -143 -110q26 -573 -74 -900t-249.5 -487.5t-233.5 -203.5t-257 -52zM305 926l2 -132q19 -133 117 -395zM1894 696l-74 -148q-47 -142 -195 -344q190 180 269 492zM740 95q-211 197 -296 397l50 -192
q101 -104 246 -205zM950 -85l-6 12l-180 153l-148 97l176 -134q138 -132 158 -128zM360 1338l16 158l-83 -10l42 -51zM1142 1087q138 -15 138 -116q-40 -93 -194 -93q-89 30 -97 58v23q0 128 153 128zM1082 985v-12l28 -23h42v12q-21 46 -42 46z" />
    <glyph glyph-name="V" unicode="V" horiz-adv-x="2526" 
d="M1170 1h-143q-66 0 -120 91l22 26h120q-133 290 -360 543q-149 375 -293 553l-68 119l-164 233h-142l-22 26q3 25 10 47l151 27l222 -15l89 18l86 9l110 -34l22 -63l-176 -2q110 -316 153 -349q91 -192 262 -440l292 -386l253 386q9 0 78 181q306 471 328 608l-131 13v25
q28 52 87 52h110l142 13l76 -13l153 26l22 -26v-13q-16 -61 -273 -77l-22 -52q-109 -96 -109 -207l-623 -1163q21 0 21 -65q208 -39 208 -65q0 -22 -55 -38l-98 12h-131h-87zM1407 391l-32 -29q-27 -34 -63 -124zM1442 679v13l11 13v13zM1732 1007l-64 -59
q-39 -81 -225 -450q138 234 289 509zM607 1122q-51 213 -149 294l55 -109q-8 -37 94 -185zM1946 1500l42 45h-32l-99 -219v-13q20 4 89 187zM357 1418q-57 108 -124 150zM625 1615l-56 18l-83 -10l61 -3zM1234 1270q138 -16 138 -119q-41 -95 -194 -95q-89 31 -97 60v23
q0 131 153 131zM1150 1151v-12l28 -23h41v12q-20 46 -41 46z" />
    <glyph glyph-name="W" unicode="W" horiz-adv-x="2682" 
d="M804 6h-173q-88 -16 -73 71l33 21l52 25q-13 314 -150 630q-143 287 -226 466l-39 119l-94 232l-134 9q15 87 38.5 97.5t85.5 15.5l96 6l131 -8l51 1l127 4l45 -46l-47 -63l-101 -3q63 -316 88 -349q53 -191 151 -439l168 -386l146 386q5 0 45 181q176 471 189 607
l-76 13v26q-19 84 51 52h62l82 13l44 -13l101 -25v25v-13q-12 -62 -123 -78l-13 -51q-63 -96 -63 -207q-344 -1171 -296 -1225q70 -42 70 -68q0 -22 -66 -38l-56 12h-76h-50zM990 403l-27 -68q-35 -24 -4 -75zM1001 428v13l7 13l-34 67zM1162 1012l-37 -60
q-33 -75 -105 -471q54 256 142 531zM538 946q-57 346 -168 480l63 -178q-10 -62 105 -302zM1251 1504l24 46h-19l-56 -220v-13q11 5 51 187zM245 1423q-33 108 -71 150zM490 1620l-62 36l-92 -20l69 -6zM1880 -3h-173q-39 0 -69 90l12 26q76 0 34.5 145t-172.5 398
q-86 374 -169 553l-39 119l-113 350l236 2l129 11l2 -86q-141 21 32 -381q53 -191 64 -339q167 -243 255 -486l73 193l73 193q5 0 45 181q176 471 189 607l-76 13v26q16 52 51 52h62l82 13l44 -13l88 26l13 -26v-13q25 -62 -123 -78l-13 -51q-63 -96 -63 -207l-293 -1154
q-24 -32 68 -77l-1 -62q0 -22 -122 -25h-76h-50zM2085 420l-53 -63q-16 -34 -14 -138zM2238 1002l-70 -53q15 -87 -84 -456q100 219 154 509zM1623 869q-45 354 -188 618l50 -272q46 -100 138 -346zM2340 1477l38 63h-46l-56 -220l-15 -67q26 59 79 224zM1321 1413
q-33 108 -71 150zM1486 1618l36 -3zM1705 384q-45 299 -188 522l50 -230q46 -85 138 -292z" />
    <glyph glyph-name="X" unicode="X" horiz-adv-x="2188" 
d="M965 865l-117 48q-107 145 -291 272q-120 188 -237 278l-55 59l-98 74l-149 43l-18 13q2 13 8 24l122 13l180 -7l72 9l70 5l88 -17l27 -75l-100 -6q94 -111 139 -132q79 -92 198 -174l198 -192l141 161q30 15 75 87l259 264l-63 40v13q22 26 71 26h88l115 7l62 -7l123 13
l18 -13l-14 -69q-13 13 -216 -34q-40 -25 -97 -72l-504 -584q18 0 -44 -78zM423 1547l192 -158l-183 184zM986 984l96 56q108 -101 291 -353q178 -183 271 -333l68 -118l85 -134l114 -43l18 -18q-2 -17 -8 -32l-122 -18l-179 10l-72 -11l-70 -7l-88 23l-17 42l137 55
q-84 161 -119 184q-73 129 -212 297l-178 254l-201 -239q-63 -60 -123 -163q-247 -293 -217 -343l58 -52l20 -45q-42 -7 -90 -7h-89l-114 -8l-62 8l-123 -17l-18 17v9q13 41 172 90q47 47 469 641l212 289q34 -9 20 -34h71zM649 1325l77 -78q151 -151 183 -142l-6 11
l-174 148zM1114 940l1 -13q76 -237 429 -520l-207 270q-104 155 -223 263zM1595 302l2 -12l134 -195l33 6l-3 13q-146 187 -166 188zM1560 1608l15 49l-64 -57zM282 82l-72 -52l135 15z" />
    <glyph glyph-name="Y" unicode="Y" horiz-adv-x="1883" 
d="M871 860l-105 48q-97 145 -129 219q-145 220 -348 331l-50 59l-89 74l-134 43l-16 13q2 13 7 24l111 13l162 -7l64 9l64 5l79 -17l24 -75l-89 -6q20 -84 125 -132q33 -111 179 -174l178 -192l128 161q26 15 90.5 57t210.5 294l-57 40v13q21 26 64 26h80l104 7l55 -7
l112 13l16 -13l-13 -69q-12 13 -195 -34q-36 -25 -413 -444l-129 -212q16 0 -32 -64zM303 1547l192 -158l-183 184zM529 1325l77 -78q151 -151 183 -142l-6 11l-174 148zM1440 1608l15 49l-64 -57zM987 1057q-65 -365 30 -589q6 -306 33.5 -337t41.5 -44l45 -44l-15 -52
l-103 -1l-192 9l-149 -13q-56 26 -61 53v14q123 112 142 124q47 13 -10 289l-5 528q41 153 243 63zM939 252q25 -55 69 -158q-48 158 -69 158zM786 864l5 -377q30 -306 68 -340l3 94l-28 252q0 284 -48 371z" />
    <glyph glyph-name="Z" unicode="Z" horiz-adv-x="1922" 
d="M79 1732l1 -9l37 10l566 13l77 2l208 -8l77 3q542 14 594 -26q19 -61 3 -123l-114 -1l-51 -2l-633 40l-270 -25l-135 7l-113 -17q-78 26 -172 9l-122 117zM395 1650q48 2 52 -23l430 34l519 -15l25 42l-244 15l-784 -40zM1723 129l-130 -78q112 -54 -255 -54l-141 5
l-66 -5l-75 11l-51 3l-817 -21l-51 3q-137 29 -129 72l7 37q63 82 604 66l77 -3l209 10l76 -4l566 -16l36 -10l2 9zM1557 99l-836 28l-260 -10l27 -30l553 11l458 -24q4 18 56 16zM165 36l-149 67l354 420l410 371q9 -4 150 193q444 494 572 616l-9 -19l118 -47l31 -43
q-138 -105 -179 -245l-1090 -1183q23 -11 -1 -92l-115 -79zM576 550l-44 -19q-41 -28 -111 -116zM718 867l5 14l16 11l5 14zM1292 1232l-108 -54q-87 -101 -492 -555q282 277 600 609zM1544 1592l61 34l-34 14l-183 -210l-5 -15q22 -2 161 177zM50 1725l294 5l13 -138h-126
q-94 -62 -181 -184h-11l-35 39v40q3 66 23 66l-12 13v120zM1692 4l-294 -4l-13 136h125q94 63 182 185h11l34 -40v-39q-2 -66 -22 -66l11 -14v-118z" />
    <glyph glyph-name="bracketleft" unicode="[" horiz-adv-x="3143" 
d="M2147 1238h280v174q0 46 -6 59q-4 12 -19 21q-19 10 -41 10h-20v17h257v-17h-21q-22 0 -41 -10q-13 -7 -18 -21.5t-5 -58.5v-390q0 -46 5 -61q5 -10 18 -19q19 -10 41 -10h21v-17h-257v17h20q38 0 55 22q11 14 11 68v184h-280v-184q0 -46 5 -61q5 -10 19 -19
q20 -10 40 -10h23v-17h-259v17h22q38 0 53 22q12 14 12 68v390q0 46 -7 59q-3 12 -17 21q-20 10 -41 10h-22v17h259v-17h-23q-20 0 -40 -10q-14 -7 -19 -21.5t-5 -58.5v-174zM2155 104v-17h-251v17h20q37 0 54 22q11 12 11 66v381q0 43 -7 58q-4 12 -17 17q-21 12 -41 12
h-20v15h251v-15h-22q-34 0 -51 -20q-12 -16 -12 -67v-381q0 -46 7 -59q3 -11 19 -19q18 -10 37 -10h22zM1732 675l15 -178h-15q-22 66 -56 100q-50 49 -130 49q-109 0 -165 -85q-46 -71 -46 -171q0 -80 31.5 -146.5t82 -98t104.5 -31.5q29 0 58 7.5t58 23.5v163q0 42 -7 55
t-19.5 20.5t-48.5 7.5v16h219v-16h-12q-30 0 -44 -22q-8 -17 -8 -61v-174q-46 -23 -93 -36t-105 -13q-163 0 -248 106q-63 79 -63 180q0 75 34 143q44 81 118 124q62 37 146 37q30 0 55.5 -5t71.5 -22q24 -8 33 -8q7 0 12 6.5t6 28.5h16zM495 247l14 -4l-51 -160h-458v16h22
q38 0 55 25q8 14 8 65v381q0 56 -12 70q-17 18 -51 18h-22v17h269v-17h-16q-35 0 -50 -7q-19 -10 -26.5 -23.5t-7.5 -67.5v-371q0 -38 6 -50q5 -10 16.5 -14t68.5 -4h43q68 0 96 10t50 35.5t46 80.5zM857 645q-74 0 -120 -56q-58 -70 -58 -205q0 -137 59 -212
q46 -56 119 -56q80 0 132 62t52 195q0 144 -58 216q-46 56 -126 56zM866 675q109 0 189.5 -83t80.5 -208q0 -129 -81.5 -213t-195.5 -84q-117 0 -195.5 82.5t-78.5 213.5q0 134 90 219q80 73 191 73zM2797 675l15 -192h-15q-24 85 -71.5 123.5t-116.5 38.5q-56 0 -101 -29
t-71.5 -91t-26.5 -154q0 -77 25 -133t74 -86.5t114 -30.5q55 0 96.5 23.5t92.5 93.5l12 -8q-43 -75 -100 -110t-133 -35q-140 0 -218 104q-56 76 -56 182q0 83 37.5 154.5t103.5 110.5t146 39q60 0 119 -30q17 -9 26 -9q10 0 19 9q10 10 15 30h14zM378 1238h280v174
q0 46 -5 61q-5 10 -18 19q-21 10 -41 10h-22v17h258v-17h-22q-20 0 -39 -10q-15 -7 -20.5 -21.5t-5.5 -58.5v-390q0 -46 7 -59q4 -12 17 -21q21 -10 41 -10h22v-17h-258v17h22q37 0 53 22q11 14 11 68v184h-280v-184q0 -46 7 -59q3 -12 18 -21q19 -10 41 -10h21v-17h-257v17
h20q37 0 54 22q11 14 11 68v390q0 46 -5 61q-6 10 -19 19q-19 10 -41 10h-20v17h257v-17h-21q-22 0 -41 -10q-13 -7 -19 -21.5t-6 -58.5v-174zM1815 1519l15 -182h-15q-22 68 -58 104q-52 49 -132 49q-111 0 -169 -88q-47 -74 -47 -176q0 -81 31 -149t83 -100.5t107 -32.5
q32 0 62 8.5t57 23.5v167q0 44 -6 58t-20.5 20.5t-48.5 6.5v15h223v-15h-10q-34 0 -46 -22q-9 -15 -9 -63v-177q-49 -25 -96.5 -38t-105.5 -13q-167 0 -254 107q-66 82 -66 187q0 75 37 145q43 83 119 129q63 36 150 36q32 0 57.5 -5t73.5 -22q24 -9 31 -9q8 0 14 8t8 28h15
zM1220 932v-17h-259v17h22q38 0 55 22q10 14 10 68v390q0 46 -5 61q-5 10 -19 19q-20 10 -41 10h-22v17h259v-17h-21q-37 0 -54 -20q-12 -16 -12 -70v-390q0 -46 7 -61q3 -10 19 -19q18 -10 40 -10h21z" />
    <glyph glyph-name="backslash" unicode="\" horiz-adv-x="569" 
 />
    <glyph glyph-name="bracketright" unicode="]" horiz-adv-x="2804" 
d="M852 1646h34l17 -19v-19h-51l-17 -18v-10q68 -64 68 -102v-18q-14 -38 -60 -38h-43l-26 28l9 10v9l43 -9h17l17 18v9q-77 72 -77 103q18 56 69 56zM1212 1646h17l18 -19l-18 -19h-17l-17 19zM1487 1627q17 0 17 -37q34 0 34 -19q0 -18 -34 -18v-93q34 0 34 -19l-25 -19
h-35q-25 10 -25 56l8 75q-26 0 -26 18l35 56h17zM998 1590h34l17 -19v-18h-51q-26 -10 -26 -56q0 -37 69 -37l8 -10v-9l-26 -19h-25q-69 0 -69 75q0 93 69 93zM1092 1590h26l8 -10l9 10h26l17 -19l-52 -37v-93l-17 -19h-17l-17 19v130zM1212 1590h9l17 -19v-130l-17 -19h-17
l-9 10h-9l9 65v74zM1358 1590q69 0 69 -75v-9q0 -84 -69 -84l-51 19q0 -84 -18 -84h-8q-17 0 -17 28l8 195l9 10h77zM1315 1553v-66l26 -27h17q26 9 26 55l-9 38h-60zM185 1272h43l17 -19v-19h-78q-42 -23 -42 -74v-28q21 -46 68 -46l43 9v-19l-26 -28q-137 0 -137 121
q0 86 112 103zM288 1272h17l17 -19l-9 -56l60 28q37 -9 61 -46q-9 -121 -26 -121h-17l-9 9h-9l9 46v47l-17 19h-26q-21 0 -34 -121h-35v195zM588 1272h17l17 -19l-17 -19h-17l-17 19zM1275 1272l17 -19v-47l60 19q51 -19 51 -37v-9q0 -121 -25 -121h-9l-17 18v103h-34
q-26 0 -35 -112l-8 -9h-17l-18 18l9 186l9 10h17zM1798 1272h78q60 0 60 -66q-26 -65 -78 -65h-8l-9 10h-8q-9 -93 -26 -93h-9l-17 18v177zM2313 1272h17l9 -10h9l-9 -111v-75l-17 -18h-26v195zM2391 1272h17l17 -19l-17 -19h-17l-18 19zM2657 1272h17l17 -19l-17 -19h-17
l-18 19zM803 1253h8q17 0 17 -37q43 0 43 -19q0 -18 -43 -18v-93h35v-10l-26 -28h-26q-18 4 -34 47l8 56v18l-17 28zM1833 1234v-55h8l43 9v46h-51zM708 1225q43 -12 43 -28l-8 -9v-9l-9 9h-26l-17 -19q60 -51 60 -83q-36 -38 -69 -38h-17l-34 38l9 9l42 -9h18v18l-52 56v28
q0 24 60 37zM966 1225q54 0 77 -84q0 -83 -103 -93q-69 31 -69 84q0 77 95 93zM1137 1225q86 -6 86 -93q-16 -84 -68 -84l-52 19q0 -84 -17 -84h-9l-17 19v139q0 84 77 84zM1506 1225q56 0 69 -84l-8 -9h-95v-37l43 -9h43v-10q-9 -28 -52 -28q-85 10 -85 84q11 93 85 93z
M2030 1225q60 -15 60 -46q-6 -121 -26 -121h-8q-17 0 -17 74q-52 -12 -52 -28v-18q43 0 43 -19l-26 -19h-8q-45 0 -52 28v37q0 33 95 47v28h-52l-8 -9h-9l-9 9v9q0 19 69 28zM2193 1225q43 0 77 -56v-37q0 -74 -85 -84q-78 0 -78 103q33 74 86 74zM2554 1225q38 0 60 -56
q-7 -111 -26 -111h-9l-17 18v84l-17 19h-26q-21 0 -34 -121h-34v139l17 19h26l8 -10zM476 1216h18l8 -10l9 10h43v-19l-52 -37q0 -102 -17 -102h-17l-9 9h-8l8 9v121zM588 1216h17l9 -10h8l-8 -65v-65l-17 -18h-26v139zM1609 1216h26l9 -10l8 10h35v-37q-43 0 -43 -38
l-17 -83h-18l-17 18v121zM2391 1216h17l8 -10h9l-9 -65v-65l-17 -18h-26v139zM2657 1216h25v-140l-17 -18h-17l-9 9h-8l8 46v84zM923 1132v-19l26 -27h17l25 27v47q0 23 -34 28q-34 -9 -34 -56zM1112 1179v-66q0 -27 34 -27q34 9 34 65q-8 37 -43 37zM1472 1160h60l-8 28
h-26zM2176 1188l-17 -28v-65l43 -9q25 9 25 55v19q-8 28 -51 28zM579 800l18 -18l-18 -19h-68l-9 -56h69l17 -18l-26 -19h-60v-74l-17 -19h-17l-17 19l8 195l9 9h111zM1721 800h9l17 -18l-9 -195l-8 -10h-18l-17 19l-51 -19h-17l-43 47v37q11 84 77 84h43q0 55 17 55z
M2039 800q17 0 17 -55h43q68 0 68 -84q0 -49 -51 -84h-17l-52 19l-17 -19h-9l-17 19l9 195l8 9h18zM1017 782h9q17 0 17 -37q34 0 34 -19t-43 -19v-93q35 0 35 -18l-17 -19h-35l-26 28v93l-17 28zM682 745h18q77 -12 77 -84q0 -78 -95 -84q-77 12 -77 84q17 84 77 84z
M820 745h8l26 -19l17 19h52l34 -38v-27q0 -103 -26 -103h-8l-17 19v93l-18 18h-17q-25 0 -25 -55l-18 -75h-17l-17 19v46q0 103 26 103zM1180 745l26 -10l43 10h26l25 -19l26 19h43l26 -28v-121l-17 -19h-17l-9 10h-9l9 46v56l-17 18h-9q-26 0 -26 -120l-8 -10h-34v112
l-18 18h-8q-21 0 -35 -130h-17l-17 19v130zM1455 745h77l26 -28v-121l-17 -19h-17l-18 19l9 65q-60 -22 -60 -37q0 -19 43 -19v-9l-17 -19h-35l-34 37v19q0 28 103 65v9l-9 10h-8l-60 -10l-9 10v9zM1833 745h43q42 -26 42 -75l-8 -9h-103v-19q0 -28 86 -28l8 -9v-9l-25 -19
h-26q-86 0 -86 75v9q0 84 69 84zM2210 745q20 0 35 -112h8q30 107 52 112h25q-59 -242 -145 -242l-18 28v9q41 0 60 37l-51 158l9 10h25zM1815 707v-18h52v9q0 19 -26 19zM665 707l-8 -46l8 -47h35l25 28v47l-17 18h-43zM1627 652v-19l17 -19h26q25 10 25 56v37h-43
q-25 -9 -25 -55zM2056 707v-74l17 -19h34l9 47v28l-17 18h-43zM193 419q17 0 60 -167h9q0 46 77 167h17l9 -9h8q-88 -203 -103 -205h-34q-17 0 -77 205l8 9h26zM571 419h8q18 0 18 -28q0 -186 -26 -186h-9l-17 19v74q0 121 26 121zM1343 419h18l17 -18v-19l-9 -140h77
l18 -18l-18 -19h-111l-9 10h-8l8 93v93zM1798 419l17 -18v-47l61 19q51 -19 51 -38v-9q0 -121 -26 -121h-8l-17 19v102h-35q-26 0 -34 -111l-9 -10h-17l-17 19l9 186l8 9h17zM2330 419h9l17 -18l-17 -19h-9l-17 19zM2571 419h8q18 0 18 -28q0 -186 -26 -186h-9l-17 19v74
q0 121 26 121zM1695 401q17 0 17 -38q35 0 35 -18q0 -19 -35 -19v-93h35v-9l-26 -28h-26l-34 37v28l9 65q-26 0 -26 19l34 56h17zM459 373q60 -15 60 -47q-6 -121 -25 -121h-9q-17 0 -17 75q-52 -13 -52 -28v-19q43 0 43 -18l-25 -19h-9q-45 0 -52 28v37q0 32 95 47v27h-52
l-8 -9h-9l-8 9v10q0 18 68 28zM700 373q55 0 68 -84l-8 -9h-95v-38l43 -9h43v-9q-8 -28 -51 -28q-86 9 -86 84q11 93 86 93zM974 373q60 -7 60 -65q0 -103 -25 -103h-9q-17 0 -17 75l-52 -19v-28q43 0 43 -18l-17 -19h-8q-47 0 -61 37v28q0 32 95 47v27h-52l-8 -9h-9l-8 9
v10q0 18 68 28zM1163 373q60 -7 60 -65v-28q0 -69 -26 -75h-8l-17 19v102h-35q-25 0 -43 -121h-17l-17 19v37q0 102 26 102h8l26 -18q0 16 43 28zM1549 373q86 -10 86 -84q-6 -93 -86 -93q-77 12 -77 84q0 73 77 93zM2030 373q60 -7 60 -65q0 -103 -26 -103h-8q-17 0 -17 75
l-52 -19v-28q43 0 43 -18l-17 -19h-9q-46 0 -60 37v28q0 32 95 47v27h-52l-8 -9h-9l-9 9v10q0 18 69 28zM2219 373q60 -7 60 -65v-28q0 -69 -26 -75h-8l-18 19v102h-34q-26 0 -43 -121h-17l-17 19v37q0 102 26 102h8l26 -18q0 16 43 28zM2459 373q55 0 69 -84l-9 -9h-94v-38
l43 -9h43v-9q-9 -28 -52 -28q-86 9 -86 84q12 93 86 93zM803 363h25l9 -9l9 9h34v-37q-43 0 -43 -37l-17 -84h-17l-18 19v121zM2330 363h9q17 0 17 -28q0 -130 -26 -130h-8l-17 19v37q0 102 25 102zM665 308h60l-8 27h-26zM1541 335q-26 -34 -26 -65l26 -37q51 0 51 65
q-8 37 -51 37zM2425 308h60l-9 27h-25zM1868 1660q32 0 62.5 -16t48 -46.5t17.5 -62.5q0 -33 -17 -63t-47.5 -46.5t-63.5 -16.5t-63 16.5t-47 46.5t-17 63q0 32 17 62.5t47.5 46.5t62.5 16zM1868 1649q-29 0 -57 -15t-43.5 -42.5t-15.5 -56.5q0 -30 15.5 -57.5t43 -42.5
t57.5 -15t58 15t43.5 42.5t15.5 57.5q0 29 -16 56.5t-43.5 42.5t-57.5 15zM1931 1615l4 -49h-7q-7 21 -21 31.5t-34 10.5q-14 0 -25.5 -6.5t-19.5 -16.5q-5 -7 -8.5 -20t-3.5 -26q0 -38 16.5 -56t42.5 -18q35 0 56 29l7 -3q-25 -36 -69 -36q-36 0 -59.5 23t-23.5 55
q0 34 25 58t64 24q9 0 14 -1t20 -5q4 -2 6 -2q3 0 5 1.5t4 6.5h7z" />
    <glyph glyph-name="asciicircum" unicode="^" horiz-adv-x="961" 
 />
    <glyph glyph-name="underscore" unicode="_" 
 />
    <glyph glyph-name="grave" unicode="`" horiz-adv-x="682" 
 />
    <glyph glyph-name="a" unicode="a" horiz-adv-x="1795" 
d="M832 1685q14 0 14 -26l8 -9h89l67 9q37 -12 37 -27q0 -18 -141 -44q0 -44 -15 -44l423 -794q0 -75 119 -88q22 0 57 -20q-51 -33 -101 -33l14 -35q175 -11 186 -53v-9l-15 -17l-104 17l-52 -8l-96 8h-75q-40 0 -59 36v17l89 9q-15 93 -223 414q-47 124 -59 124h-364
q-178 -186 -178 -300q0 -153 -104 -238l120 -2l-15 -43l-75 -23l-58 7l-61 12l-150 -10l-103 18q-5 15 -7 32l15 18h97l111 159l46 81q62 121 199 377q154 172 245 370h-82l-15 18q37 62 82 62h97zM861 1535v-9q38 -143 60 -150v9l-52 150h-8zM809 1456q0 -35 -141 -247v-9
l8 9h7l267 9l-104 211l-29 27h-8zM765 1156v-9h215v9l-7 9v9q-68 -18 -208 -18zM1017 1174v-9q55 -126 126 -221v18q-76 176 -126 212zM290 715l7 -44h7q67 55 67 115q-35 -15 -81 -71zM1255 742v-9l67 -150h22v9q-76 146 -89 150zM171 574h8l44 18l15 88zM319 618v-9h15
l37 36v35zM275 592v-9h15v9h-15z" />
    <glyph glyph-name="b" unicode="b" horiz-adv-x="1401" 
d="M96 1697h8q115 0 143 -25l55 -101q-15 -77 -15 -202v-137h15l-32 -101l-15 -18v-110l24 -324l27 -84l89 -78v-31l-99 -1q-31 1 -72 1h-192v19q48 52 64 100q24 0 24 174l7 175l-15 55v110l15 101v201l17 92q-63 101 -128 101l-16 27v10q0 22 96 46zM725 1091l58 -2
q-52 8 -58 2zM158 797l-4 -204l18 -16q-5 31 -14 220zM280 549q96 -31 61 -10t-61 10zM556 1703q229 0 439 -151q25 -26 57 -209q0 -112 -238 -221q-124 -47 -352 -47h-258l-19 23l28 47v128l-28 221v23l9 58q-28 0 -28 23v70l10 12v12l9 -12h219zM299 1587v-407l-9 -11v-12
l9 -12h96l104 24h115q181 79 181 185v58q-68 112 -172 128q-88 47 -161 47h-163zM233 1552v-47l19 24v23h-19zM635 1656q171 -33 260 -155q-55 70 -88 99t-53 41t-119 15zM233 1494v-82l19 24l-10 58h-9zM845 1314l-7 -12q3 -79 -111 -128l110 46q49 73 33 81zM221 1555v58
l-59 33l38 -50l-13 -96zM148 1601l-27 22l-43 10l27 -13l66 -72zM820 503l64 -3q-58 9 -64 3zM644 1165q259 0 496 -163q28 -28 65 -227q0 -120 -270 -238q-140 -51 -399 -51h-291l-22 25l32 51v138l-32 239v25l11 63q-33 0 -33 25v75l11 13v13l11 -13h248zM348 1015v-420
l-9 -12v-12l9 -13h106l116 25h126q200 82 200 191v60q-75 116 -189 133q-98 48 -179 48h-180zM275 979v-48l21 24v24h-21zM720 1087q189 -35 287 -161q-61 72 -97.5 102t-59 43t-130.5 16zM275 919v-85l21 25l-11 60h-10zM952 733l-8 -12q3 -82 -123 -133l121 48
q55 75 37 84zM262 982v60l-65 34l42 -52l-14 -99z" />
    <glyph glyph-name="c" unicode="c" horiz-adv-x="1401" 
d="M1069 1717l48 -58l-16 -36q96 -31 70 -133l-47 -11l-70 62l-40 -8l-181 19v-9l33 14v-10q-16 -38 -32 -38h-32q-34 29 -113 54v10q-156 -28 -299 -94q-103 -125 -103 -151q0 -23 -38 -83q-32 -50 -16 -164q49 -325 205 -362t207.5 -50.5t192 21t293.5 207.5l64 10
q-18 -47 -33 -206l-33 -145l-47 12l-10 85l-122 -38q-125 -65 -278 -63q-229 -4 -533 166l-21 28v19l21 19l43 -10q-182 111 -182 453q98 233 310 405q92 66 139 66q144 32 196.5 33.5t214.5 -21.5l101 -23q86 -72 108 30zM439 652v-7l141 -45l95 24q-83 -3 -137 11z
M395 1590q48 27 179 56l-148 -11l-124 -78l2 -7z" />
    <glyph glyph-name="d" unicode="d" horiz-adv-x="1502" 
d="M222 1693q67 0 67 -61q365 74 660 -5t347 -463q0 -334 -588 -572l-420 -68h-66l-89 -25h-110l-23 25q70 144 152 168l22 -50l180 11l4 142q0 148 44 431v12l-33 124v172q-91 -49 -313 -123l-11 12v13zM437 1498l7 -249h7l14 290h-14q-14 0 -14 -41zM531 1534v-555
l-25 -316q74 5 123 27.5t208 152t173 292.5q-13 103 -30 140t-94.5 113t-160.5 111t-160 35h-34zM993 1457q150 -166 171.5 -252t-118.5 -298q162 178 145 297v25q-27 49 -63.5 90.5t-134.5 137.5zM908 1587l61 -38q53 -51 93 -75q-47 37 -66 58t-88 55zM428 656h19l10 406
q-29 -193 -29 -406zM882 766l-57 -31l65 27l64 48z" />
    <glyph glyph-name="e" unicode="e" horiz-adv-x="1273" 
d="M107 1689h8q128 0 195 -27l301 9h18l309 -18h54q62 0 62 -99q19 0 35 -63q-8 -63 -27 -63q-44 55 -167 117h-89l-80 27l-212 -9h-142q-18 -76 -18 -199v-135h18l150 -27q42 0 178 81h35v-9q-35 -59 -35 -117q0 -30 44 -72q0 -18 -27 -18q-137 63 -212 63h-169l-17 -18
v-108l-9 -315q110 -64 195 -64q112 28 363 36q71 25 186 154h35l18 -19l-26 -72v-26l17 -73q-6 -99 -36 -99l-114 54q-80 -27 -84.5 -22.5t-13.5 4.5q-55 -36 -115 -36l-106 9l-151 -18l-115 9h-35q-34 -27 -80 -27h-212v18q52 51 71 99q26 0 26 171l9 172l-18 54v108l18 99
v198l17 91q-69 99 -141 99l-18 27v9q0 22 107 45zM77 1616q2 26 -26 27t26 -27zM319 1617q-29 -7 35 -9q44 3 -35 9zM138 1583l21 -38q18 -11 10 18zM650 1154l5 46q-13 -25 -23.5 -28.5t18.5 -17.5zM372 1176l55 -6l52 -2q-47 8 -83 17q-17 0 -24 -9zM159 698q0 -45 10 -67
q0 39 -10 67zM320 625l-21 -15l40 5q7 16 -19 10zM575 582q27 -2 76 -2t93 9t94 25q-129 -6 -263 -32zM128 540q49 22 49 31t-4 9t-45 -40zM376 569q93 2 128 11q-106 0 -128 -11z" />
    <glyph glyph-name="f" unicode="f" horiz-adv-x="1273" 
d="M107 1689h9q129 0 197 -27l303 9h19l312 13h53q63 0 63 -99q20 0 36 -63q-9 -63 -27 -63q-45 55 -170 117h-89l-112 14l-183 -27h-169q-18 -76 -18 -198v-136h18l178 -26q42 0 179 81h35v-9q-35 -60 -35 -117q0 -30 44 -72q0 -18 -26 -18q-139 63 -215 63h-170l-17 -18
v-108q-18 -364 16 -385.5t108 -102.5l1 -15l-63 -3q-87 1 -134 1h-214v19q53 50 71 98q27 0 47 171l9 172l-18 53v109l18 99v198l-3 90q-69 99 -142 99l-18 27v9q0 22 107 45zM78 1617q1 26 -27 26.5t27 -26.5zM322 1619q-133 9 35 -11q44 4 -35 11zM139 1583l21 -38
q18 -11 10 18zM656 1155l4 46q-12 -25 -23 -29t19 -17zM375 1177l56 -6l52 -2q-47 8 -83 17q-18 0 -25 -9zM94 529q85 35 89 47t-18 -4.5t-71 -42.5z" />
    <glyph glyph-name="g" unicode="g" horiz-adv-x="1341" 
d="M997 1723l45 -59l-15 -37q90 -31 67 -95l-47 -38v-10l70 -67l-20 -19q-88 0 -177 148l28 1l23 7l-44 -1l-149 3v-9l30 13v-9q-15 -38 -30 -38h-30q-32 28 -90 28v10q-145 -29 -279 -96q-140 -126 -140 -153q0 -22 -49 -57q-30 -52 -40 -201q78 -219 259 -306
q160 -48 299 -48h50q30 0 30 105v240h-10l-189 -29l-30 38v29q0 38 239 57h20l50 -9q201 0 299 47l10 -9v-10q0 -95 -190 -95l-29 -10v-9l-20 -211v-86q0 -67 40 -67l49 -9v-20l-40 -38q40 -57 40 -86q0 -19 -30 -19q-57 0 -109 105l-16 -70l-26 6l-28 55l-182 -41
q-223 -17 -506 155l-20 29v19l20 19l40 -9q-170 112 -170 459q91 236 289 411q86 67 130 67h189q55 0 97 -29l71 -22l112 -6q89 -27 109 76zM885 1047v-91h10l10 91h-20zM823 806v-96h10l10 77l-10 19h-10zM386 655v-8l132 -46l137 25q-126 -3 -176 11zM1028 1558l-37 -20
l29 -24z" />
    <glyph glyph-name="h" unicode="h" horiz-adv-x="1401" 
d="M18 1692l213 -9h105l17 -19l-1 -51l-10 -10q-62 1 -85 -43v-29l-8 -595q36 -164 27 -182.5t5 -68t69 -115.5l31 -31l-10 -37l-73 -1l-135 7l-105 -9q-40 18 -43 37v10q86 79 86 142q-31 93 3 522q-26 180 -26 321q-4 76 -70 76l-8 9v48zM35 1664l66 -2l-49 11
q-17 0 -17 -9zM92 1580l32 -58q-4 48 -32 58zM228 1335l-1 140q-10 50 -10 12t11 -152zM144 1101q0 -76 1 -230q8 211 -1 230zM242 686q17 -39 48 -111q-34 111 -48 111zM836 1688l214 -9h105l17 -19l-2 -51l-9 -9q-62 0 -85 -44v-28l-8 -595q35 -164 26.5 -183t5.5 -68
t68 -116l32 -31l-11 -36l-72 -1l-135 6l-105 -9q-40 18 -43 37v10q86 79 86 142q-31 93 3 522q-26 180 -26 322q-4 76 -70 76l-8 9v47zM853 1660l67 -1l-49 10q-18 0 -18 -9zM911 1577l32 -59q-4 48 -32 59zM1047 1331l-1 141q-10 49 -10 11.5t11 -152.5zM963 1097
q0 -75 1 -229q8 210 -1 229zM1060 683q18 -39 49 -112q-34 112 -49 112zM213 1221l1 -10l18 11l278 15l38 4l102 -10l38 3q267 16 289 -23l12 -79q4 -43 -63 -72l-26 -3l-401 21l-26 -2l-37 -13l-32 7l-69 -6q-181 -1 -126 54l-64 78zM352 1174q24 1 26 -8l210 12l254 -5
l12 14l-119 5l-384 -13z" />
    <glyph glyph-name="i" unicode="i" horiz-adv-x="599" 
d="M21 1692l254 -9h124l21 -20l-2 -51l-12 -10q-74 0 -100 -44v-29l-10 -605q42 -166 31.5 -185t6.5 -69t81 -118l38 -31l-13 -37l-86 -1l-161 6l-124 -9q-47 19 -51 38v10q103 80 103 144q-38 95 3 530q-31 183 -31 327q-5 77 -83 77l-10 9v48zM41 1663l79 -1l-58 11
q-21 0 -21 -10zM110 1579l37 -60q-4 49 -37 60zM271 1329l-1 143q-12 50 -12 11.5t13 -154.5zM172 1091q-1 -76 0 -233q10 214 0 233zM287 671q21 -40 58 -114q-40 114 -58 114z" />
    <glyph glyph-name="j" unicode="j" horiz-adv-x="952" 
d="M888 1663v-43l-9 -9q-60 0 -63 -67q0 -128 -24 -288q29 -358 0 -442q-15 -145 -52 -193.5t-99 -74.5l-78 -38q31 -29 -215 -12q-88 14 -192 81t-106 215q-50 151 3 221l32 27l14 -61q-25 -41 24 -173l34 -82q155 -150 266 -130.5t153.5 70t53.5 100t3 88.5t27 158l-8 534
v25q-21 40 -78 39l-9 9l-1 46l16 17h96l196 8zM840 1671l-44 -10l60 1q0 9 -16 9zM774 1535l29 53q-26 -10 -29 -53zM680 1494l-1 -126q10 102 10 136t-9 -10zM741 1059q3 27 2 95q-7 -18 -2 -95zM745 724q6 44 6 129q-15 0 -6 -129zM572 534q-135 -14 -262 19
q77 -26 119.5 -31t142.5 12zM244 602l-77 48l-55 74l21 -39q20 -51 111 -83zM888 1663v-43l-9 -9q-60 0 -63 -67q0 -128 -24 -288q29 -358 0 -442q-15 -145 -52 -193.5t-99 -74.5l-78 -38q31 -29 -215 -12q-88 14 -192 81t-106 215q-50 151 3 221l32 27l14 -61
q-25 -41 24 -173l34 -82q155 -150 266 -130.5t153.5 70t53.5 100t3 88.5t27 158l-8 534v25q-21 40 -78 39l-9 9l-1 46l16 17h96l196 8zM840 1671l-44 -10l60 1q0 9 -16 9zM774 1535l29 53q-26 -10 -29 -53zM680 1494l-1 -126q10 102 10 136t-9 -10zM741 1059q3 27 2 95
q-7 -18 -2 -95zM745 724q6 44 6 129q-15 0 -6 -129zM572 534q-135 -14 -262 19q77 -26 119.5 -31t142.5 12zM244 602l-77 48l-55 74l21 -39q20 -51 111 -83z" />
    <glyph glyph-name="k" unicode="k" horiz-adv-x="1266" 
d="M18 1692l223 -9h109l18 -19l-2 -51l-10 -10q-65 1 -88 -43v-29l-9 -596q38 -164 28.5 -182.5t5.5 -68t71 -116.5l33 -31l-11 -36l-75 -1l-141 6l-110 -9q-41 18 -45 38v9q91 80 91 142q-33 94 3 523q-28 181 -28 322q-4 76 -72 76l-9 9v48zM36 1664l69 -2l-51 11
q-18 0 -18 -9zM96 1580l33 -58q-3 48 -33 58zM238 1334l-2 141q-10 50 -10 12t12 -153zM150 1100q0 -76 1 -230q49 279 -1 230zM252 685q18 -39 50 -112q-35 112 -50 112zM801 1549l45 15l5 7q-22 10 -149 -79l-6 -7zM360 1167l209 132q-160 -68 -209 -132zM356 1156
l222 -230l259 -197l138 -156h105l16 -18q-2 -18 -7 -33l-112 -19l-163 11l-65 -12l-63 -7l-80 24l-17 43l130 2q-106 107 -243 262l-267 229zM848 662l-118 69l111 -100l78 -69h8zM585 758l126 -125l40 -36h16v9zM799 580v-9h16v9h-16zM186 1113q453 351 534.5 424t-53.5 79
l17 32l1 24l64 -5h65l163 -1l111 -1q5 -24 7 -37l-16 -13q-127 -2 -225 -119l-67 -49l-572 -445z" />
    <glyph glyph-name="l" unicode="l" horiz-adv-x="1199" 
d="M17 1688l208 -9h102l16 -19l-1 -50l-10 -10q-60 1 -82 -43v-28l-8 -589q38 -132 29 -151t5 -67.5t40 -71.5l361 6l99 -18l71 21q47 12 127 111h8l17 -18q-45 -209 -110 -243l-135 18l-593 19l-102 -9q-38 18 -42 37v10q84 78 84 140q-30 92 0 487q-25 177 -25 318
q-4 74 -68 74l-8 10v47zM34 1659l64 -1l-47 11q-17 0 -17 -10zM90 1578l31 -59q-4 48 -31 59zM222 1334l-1 139q-10 49 -10 12t11 -151zM153 1098q-1 -75 3 -105q5 86 -3 105zM186 817q0 -47 4 -70q5 70 -4 70zM510 605l191 1q-28 11 -51.5 10.5t-139.5 -11.5z" />
    <glyph glyph-name="m" unicode="m" horiz-adv-x="1798" 
d="M906 937l33 27l-118 -184l-27 -35l-145 181q-63 68 -86 163q-62 29 -80 125l-46 83l-94 178h-9l-17 -450l-9 -10h-8l17 -178v-38l-9 -150q0 -32 95 -56l68 -28l9 -10v-9q-12 -56 -52 -56l-155 13h-52l-178 5q-39 19 -43 38v9l26 28h94q77 68 77 151v93l-9 94q9 97 43 207
v19q-8 103 9 178v19q-26 103 8 244q-85 0 -85 28v9l17 19l-9 47v9l86 -9h111q32 0 78 -37l51 18l8 -9v-19q0 -37 -111 -37q0 -20 111 -132q0 -63 198 -357l154 -168zM283 1663q25 -28 94 -2zM231 1654v-10h17v10h-17zM254 1504q-3 -60 -3 -82t17 -73l-2 117zM248 884v-160
l18 19v94l-9 47h-9zM1422 506q-247 -15 -247 6v29q0 18 26 18l71 7q-28 119 -47 420l-23 506l34 128q46 38 67 38h9q43 22 72 -162l32 -261l17 -150v-56l9 -413l-9 -29h9q38 -17 69 -17l54 7l34 -38l-26 -28q-78 -6 -151 -5zM1311 936q-14 301 -34 387l4 -215l34 -512
q16 89 14.5 119.5t-18.5 220.5zM766 895l142 150l163 268l50 120q58 146 58 166q-111 0 -111 38v18l8 10l52 -19q45 38 77 38h111l86 9v-9l101 10l-27 -84l-66 -1q0 -29 -85 -29l-86 -112h-9l-94 -179l-46 -82l-70 -138q-33 -82 -175 -193q-51 -131 -108 59z" />
    <glyph glyph-name="n" unicode="n" horiz-adv-x="1612" 
d="M1083 1696q327 -6 327 -46v-9q0 -18 -31 -18l-204 -10q31 -118 72 -174v-101l10 -46l-10 -55v-37l61 -578v-37q-26 -101 -51 -101h-10q-27 0 -195 193q-122 83 -184 211q-169 108 -197 201q-74 29 -95 122l-55 81l-112 174h-11l-20 -440l-10 -9h-10l20 -175v-37l-10 -147
q0 -31 112 -55l82 -27l10 -9v-10q-14 -55 -61 -55l-184 46q-13 -46 -31 -46h-10q-20 0 -20 46l-215 -27q-46 18 -51 36v10l31 27h112q92 66 92 147v92l-10 92q10 95 51 202v18l-10 101l20 74v18l-31 101l41 138q-102 0 -102 27v9l21 19l-11 46v9l103 -9h132q38 0 92 -37
l62 18l10 -9v-18q0 -37 -133 -37q0 -20 133 -129q0 -62 235 -348l184 -166l71 -46v55l-20 147v55l-10 404l10 28h-10q-77 -46 -113 -46h-143l-41 37l31 27h102q69 0 184 83zM337 1650l31 -27v27h-31zM276 1641v-9h20v9h-20zM296 1476l-10 -37q13 -46 31 -46v64zM1144 1457
v-450l21 -137l30 18l-30 294l10 248q-20 0 -20 27h-11zM296 888v-156l21 18v92l-10 46h-11z" />
    <glyph glyph-name="o" unicode="o" horiz-adv-x="1401" 
d="M491 1787l193 -32l107 11q53 -8 53 -31l-11 -11v-11q164 -88 300 -452v-84l-11 -53l21 -210q-53 -195 -160 -263q-140 -89 -385 -126l-53 -11h-193q-309 76 -344 386q-8 66 -8 140v52q31 380 96 380q35 0 86 104q152 179 203 179zM459 714q293 0 428 126q67 8 127 84v63
q0 421 -341 674h-42q-86 0 -339 -250q-32 -82 -42 -211q-49 0 -34 -152.5t68 -194t175 -139.5zM726 1698v-10l24 -25l55 -13l-46 52zM846 1629q202 -315 202 -400h20v49q-102 230 -222 351zM129 788v-11q0 -92 234 -189l53 -11h108q0 28 -235 74q-150 97 -150 137h-10z
M588 640v-11l71 -27q197 27 330 145t91 302q-61 -415 -492 -409z" />
    <glyph glyph-name="p" unicode="p" 
d="M87 1697h7q105 0 130 -25l50 -100q-14 -77 -14 -202v-137h14l-29 -99l-14 -19v-109l23 -323l24 -84l81 -78v-30l-91 -1q-28 1 -65 1h-174v19q44 51 58 100q22 0 22 173l7 174l-14 55v109l14 101v201l14 91q-57 101 -115 101l-15 27v9q0 22 87 46zM143 800l-4 -202l17 -17
q-5 31 -13 219zM254 554q87 -31 55 -10.5t-55 10.5zM505 1703q208 0 398 -151q22 -25 52 -208q0 -111 -217 -220q-111 -46 -319 -46h-234l-17 23l26 46v128l-26 220v22l8 59q-25 0 -25 23v69l8 12v12l9 -12h199zM271 1587v-405l-8 -11v-12l8 -12h87l95 24h104
q164 79 164 185v57q-61 112 -155 128q-80 46 -147 46h-148zM211 1552v-46l17 24v22h-17zM745 1582q134 -83 167 -224q-22 83 -40 120t-31 54.5t-96 49.5zM211 1495v-82l17 24l-9 58h-8zM717 1214l-11 -8q-25 -75 -139 -87l109 10q69 53 58 66zM200 1555v59l-53 33l35 -51
l-12 -96zM134 1601l-24 23l-40 9l26 -13l59 -71z" />
    <glyph glyph-name="q" unicode="q" horiz-adv-x="1288" 
d="M534 1782l124 -28l100 11q194 -140 321 -504v-84l20 -53l-10 -209q-50 -195 -150 -263q-131 -88 -361 -126l-50 -10h-180q-290 76 -323 385q-7 66 -7 140v52q-18 220 51 317q70 108 119 166q82 123 190 178zM448 715q275 0 401 126q63 8 120 84v63q0 419 -321 672h-40
q-80 0 -317 -250q-30 -82 -72 -147q-25 -147 -5 -257t70 -151.5t164 -139.5zM698 1697v-10l22 -26l52 -12l-42 52zM810 1628q190 -314 190 -399h19v48q-96 231 -209 351zM151 1043l-5 -9q-45 -79 98 -276l38 -34l87 -51q13 23 -155 175q-74 155 -54 190zM804 697l20 -7
q98 -3 171.5 86t34.5 273q-57 -414 -226 -352zM851 468q2 -64 77 -137l9 -40q180 -11 191 -54v-8l-15 -18l-107 18l-53 -9l-100 9h-76q-41 0 -69 21l8 32l62 16l-60 146q-71 84 -139 266q200 13 147 -16zM785 460v-9l68 -151h23v9q-77 148 -91 151z" />
    <glyph glyph-name="r" unicode="r" horiz-adv-x="1288" 
d="M533 1149v-12q203 -39 254.5 -132.5t81 -217.5t51 -157.5t126.5 -46.5l87 -82q-186 -18 -283 51.5t-105 185t-80 225.5t-485 95l53 137zM793 770l29 -37h11q0 18 -40 37zM80 1697h7q97 0 121 -24l46 -100q-13 -77 -13 -200v-136h13l-27 -99l-13 -18v-109l21 -320l23 -83
l75 -78v-30l-84 -1q-26 2 -61 2h-161v18q40 51 53 99q21 0 21 172l6 173l-13 54v109l13 100v199l14 90q-53 100 -107 100l-14 27v9q0 22 80 46zM610 1098l-48 47q53 -41 48 -47zM133 807l-4 -201l16 -16q-5 30 -12 217zM236 562q80 -30 50.5 -9.5t-50.5 9.5zM468 1703
q192 0 369 -149q21 -26 48 -207q0 -111 -201 -218q-103 -46 -308 -63l-211 -6l-10 45l24 46v127l-24 218v23l9 58q-24 0 -24 23v68l8 12v12l7 -12h185zM252 1588v-402l-8 -11v-12l8 -12h80l88 24h96q153 78 153 183v58q-57 110 -145 126q-74 46 -136 46h-136zM196 1554v-46
l16 23v23h-16zM534 1657q144 -33 219 -154q-46 69 -74 98t-45 41t-100 15zM196 1496v-80l16 23l-9 57h-7zM711 1318l-6 -11q2 -78 -93 -127l92 46q42 72 28 80zM186 1556v58l-50 33l32 -50l-11 -95zM124 1602l-22 22l-37 10l24 -13l55 -71z" />
    <glyph glyph-name="s" unicode="s" horiz-adv-x="1233" 
d="M864 1722l20 -31l16 -35l-5 -7v-7q12 0 13 -52l-8 -21l25 -73v-14l-12 -15h-6q-32 115 -128 132q-99 54 -195.5 32t-136.5 -65t-29.5 -116t247.5 -141q311 -112 359 -203.5t34 -214.5q-35 -195 -107.5 -266.5t-231.5 -120.5q-334 -49 -526.5 162t-141.5 282q-2 50 23 94
q82 -220 55 -120q258 -330 411 -299t254.5 106t111.5 179t-103.5 184t-295 146t-216.5 163.5t4.5 165t112 98.5t166.5 42q103 0 169.5 -25.5t89 -7.5t31.5 48zM786 1196q188 -105 172 -344q41 264 -172 344zM781 613q269 106 219 379q23 -264 -219 -379zM271 697
q88 -91 201 -118q-103 33 -201 118z" />
    <glyph glyph-name="t" unicode="t" horiz-adv-x="1199" 
d="M37 1655h922l28 -30v-139q-14 -109 -46 -109q-54 31 -54 120l-10 10l-19 5q-37 14 -44 34h-46l-156 12l-18 -32v-386l-18 -426l9 -148l34 -12q87 -8 94 -47q-33 -17 -87 -17h-311l-50 6v21q0 29 128 39q27 181 27 307l-9 59l9 60l-9 515q0 41 -36 69l-92 -10h-101
q-75 -47 -145 -138h-9l-28 29v30q2 49 18 49l-9 10v89zM859 1606l64 -50q-9 60 -64 50zM43 1517q24 68 77 79l-1 -1q-81 33 -76 -78zM478 1550l-7 -41l-3 -191l10 -219h2l7 137l-3 300l-4 14h-2zM941 1461l10 -58l7 26l-8 32h-9zM513 868l-6 -100v-215h21l-10 315h-5z" />
    <glyph glyph-name="u" unicode="u" horiz-adv-x="1401" 
d="M722 485q-164 -5 -292 78q-185 155 -247 374t-26 417l-35 241l-121 4q-1 40 3 54l91 18l134 -10l53 12l52 6l66 -22l13 -42l-106 -2q-43 -50 -18 -423q21 -228 136 -353q45 -131 157.5 -203.5t184 -76.5t176.5 152t137.5 298t55.5 338q20 191 -60 249l-127 8l-6 47
q16 34 52 34h66l71 -4l60 4l92 17l13 -17v-9q-9 -40 -86 -74q16 -389 -44 -610.5t-150 -331t-140.5 -138.5t-154.5 -35zM183 1215l2 -90q11 -91 70 -268zM1139 1058l-45 -100q-28 -96 -117 -234q114 123 162 334zM445 651q-127 133 -178 269l30 -130q61 -71 148 -139z
M571 528l-3 8l-109 104l-89 66l106 -91q83 -90 95 -87zM216 1494l10 107l-50 -7l25 -34z" />
    <glyph glyph-name="v" unicode="v" horiz-adv-x="1603" 
d="M730 508h-89q-42 0 -75 63l14 18h75q-83 204 -225 381q-93 263 -183 388l-42 83l-103 163h-88l-14 19q2 18 6 33l95 19l138 -11l55 12l54 7l68 -24l14 -44l-110 -2q69 -221 96 -244q57 -135 164 -308l181 -271l158 271q6 0 49 126q191 331 205 426l-82 10v18q17 36 54 36
h69l88 9l48 -9l95 18l14 -18v-9q-10 -43 -170 -55l-14 -36q-68 -67 -68 -145l-389 -815q14 0 14 -46q129 -27 129 -45q0 -16 -34 -27l-61 9h-82h-54zM878 781l-20 -20q-17 -25 -40 -88zM899 983v9l7 9v9zM1080 1213l-39 -42q-25 -57 -141 -315q86 164 180 357zM379 1293
q-32 149 -93 206l34 -76q-5 -26 59 -130zM1214 1558l26 32h-20l-62 -154v-9q13 3 56 131zM223 1501q-36 76 -77 105zM390 1639l-35 13l-52 -7l38 -2z" />
    <glyph glyph-name="w" unicode="w" horiz-adv-x="1693" 
d="M500 508h-107q-55 -12 -46 49l21 15l33 17q-48 205 -130 382q-53 264 -105 390l-24 83l-59 164l-83 6q9 61 24 68.5t53 11.5l60 4l82 -6l31 1l79 3l28 -33l-29 -44l-63 -2q40 -222 55 -245q33 -135 94 -310l105 -271l90 271q3 0 28 128q110 331 118 427l-47 9v18
q-12 59 31 37h39l51 9l28 -9l63 -18l-1 18v-9q-7 -43 -76 -55l-8 -36q-39 -68 -39 -146q-215 -824 -185 -862q44 -29 44 -47q0 -16 -41 -27l-35 9h-47h-32zM616 787l-16 -48q-22 -17 -3 -53zM623 804v9l4 9l-21 47zM723 1215l-23 -42q-20 -53 -65 -331q34 179 88 373z
M299 1296q-18 150 -54 207l20 -77q-3 -26 34 -130zM779 1562l15 32h-12l-35 -155v-9q7 3 32 132zM152 1504q-20 76 -44 106zM305 1643l-20 13l-30 -8l22 -2zM1170 501h-108q-23 0 -43 63l8 18q48 0 22 102.5t-108 279.5q-53 264 -105 390l-24 83l-70 246l146 2l81 8l1 -60
q-88 14 20 -268q32 -135 94 -310l104 -271l91 271q3 0 28 128q110 331 118 427l-47 9v18q10 37 31 37h39l51 9l27 -9l55 18l8 -18v-9q15 -44 -77 -55l-7 -36q-40 -68 -40 -146l-182 -812q-15 -22 42 -54l-1 -43q0 -16 -76 -18h-47h-31zM1298 799l-33 -45q-10 -24 -9 -97z
M1393 1208l-44 -37q10 -62 -52 -321q63 154 96 358zM969 1289q-19 150 -76 260l20 -114q19 -42 56 -146zM1456 1543l24 44h-28l-36 -155l-9 -47q17 41 49 158zM822 1497q-20 76 -44 106zM925 1641l22 -2z" />
    <glyph glyph-name="x" unicode="x" horiz-adv-x="1393" 
d="M593 1116l-71 33q-67 102 -180 191q-73 132 -145 195l-34 42l-61 51l-91 31l-11 9q1 9 5 16l75 10l111 -5l44 6l43 3l54 -12l16 -52l-61 -5q58 -77 86 -91q48 -65 121 -123l122 -134l87 112q18 11 46 61l159 185l-39 29v9q14 18 44 18h54l71 4l38 -4l76 9l11 -9l-9 -49
q-8 9 -133 -24q-24 -17 -59 -50l-310 -409q11 0 -27 -55zM260 1594l118 -111l-113 129zM606 1199l60 40q66 -71 178 -248q110 -128 167 -233l42 -83l52 -94l70 -30l11 -12q-1 -13 -5 -23l-75 -13l-110 7l-44 -8l-43 -5l-54 17l-11 30l84 38q-51 113 -73 129q-45 91 -130 208
l-109 178l-124 -167q-39 -42 -76 -115q-152 -205 -133 -240l36 -36l12 -32q-26 -5 -56 -5h-54l-70 -6l-38 6l-76 -13l-11 13v6q8 29 106 63q29 33 288 450l130 202q21 -6 13 -24h43zM399 1438l48 -54q92 -106 112 -100l-4 8l-106 103zM685 1168l1 -9q47 -166 264 -364
l-128 189q-64 109 -137 184zM981 722l1 -9l82 -136l20 4l-1 8q-90 132 -102 133zM959 1637l9 34l-39 -40zM173 567l-44 -36l83 10z" />
    <glyph glyph-name="y" unicode="y" horiz-adv-x="1199" 
d="M562 1109l-68 34q-62 102 -83 154q-103 82 -225 232l-32 42l-57 52l-87 30l-10 10q1 9 4 16l72 10l105 -5l41 6l41 3l52 -12l15 -52l-58 -5q55 -78 81 -92q46 -65 116 -123l115 -134l82 113q17 10 44 61l151 185l-37 29v9q13 18 41 18h52l67 4l36 -4l72 9l10 -9l-8 -49
q-8 9 -126 -24q-23 -17 -57 -50l-293 -411q10 0 -21 -45zM196 1592l123 -111l-118 129zM342 1436l49 -55q98 -106 119 -100l-4 8l-113 104zM930 1635l9 34l-41 -40zM637 1248q9 -480 16 -554.5t25 -96.5t27 -31l29 -31l-10 -36l-66 -1l-124 6l-96 -9q-36 18 -40 37v10
q80 79 92 87q30 9 -10 574q27 108 157 45zM517 1095q-1 -76 1 -229q7 210 -1 229zM606 682q16 -39 45 -111q-31 111 -45 111z" />
    <glyph glyph-name="z" unicode="z" horiz-adv-x="1401" 
d="M49 1712l1 -6l22 7l349 8l47 2l128 -6l48 2q334 10 366 -16q12 -43 2 -85l-70 -1l-32 -1l-390 27l-166 -17l-83 5l-70 -11q-48 17 -107 5l-74 80zM244 1647q29 1 32 -7l263 11l318 -5l16 13l-149 5l-482 -12zM1062 618l-80 -53q69 -37 -158 -37l-86 3l-41 -4l-46 9l-32 1
l-503 -14l-31 2q-85 20 -81 50l5 25q39 56 373 45l47 -3l128 7l48 -2l348 -11l22 -7l2 7zM959 605l-480 12l-150 -5l15 -12l318 4l264 -11q3 8 33 7v5zM102 554l-92 46l218 287l253 253q6 -3 92 131q273 339 353 422l-6 -13l72 -33l20 -29q-85 -71 -110 -167l-672 -808
q14 -7 -1 -63l-71 -54zM355 906l-27 -13q-25 -20 -69 -79zM442 1122l4 9l10 7l2 10zM703 1293l-54 -27q-44 -52 -247 -287q142 143 301 314zM951 1617l38 23l-21 9l-113 -143l-2 -10q13 -2 98 121zM30 1707l182 3l8 -93h-78q-57 -43 -112 -126h-6l-21 27v27q1 45 13 45l-6 9
v82zM1042 533l-180 -4l-8 94h77q58 43 111 126h7l22 -27v-27q-2 -46 -15 -46l8 -8v-81z" />
    <glyph glyph-name="braceleft" unicode="{" horiz-adv-x="684" 
 />
    <glyph glyph-name="bar" unicode="|" horiz-adv-x="532" 
 />
    <glyph glyph-name="braceright" unicode="}" horiz-adv-x="684" 
 />
    <glyph glyph-name="asciitilde" unicode="~" horiz-adv-x="1196" 
 />
    <glyph glyph-name="dagger" unicode="&#x2020;" 
 />
    <glyph glyph-name="degree" unicode="&#xb0;" horiz-adv-x="819" 
 />
    <glyph glyph-name="cent" unicode="&#xa2;" 
 />
    <glyph glyph-name="sterling" unicode="&#xa3;" 
 />
    <glyph glyph-name="section" unicode="&#xa7;" 
 />
    <glyph glyph-name="bullet" unicode="&#x2022;" horiz-adv-x="717" 
 />
    <glyph glyph-name="paragraph" unicode="&#xb6;" horiz-adv-x="1100" 
 />
    <glyph glyph-name="registered" unicode="&#xae;" horiz-adv-x="1509" 
 />
    <glyph glyph-name="copyright" unicode="&#xa9;" horiz-adv-x="1509" 
 />
    <glyph glyph-name="trademark" unicode="&#x2122;" horiz-adv-x="2048" 
 />
    <glyph glyph-name="acute" unicode="&#xb4;" horiz-adv-x="682" 
 />
    <glyph glyph-name="dieresis" unicode="&#xa8;" horiz-adv-x="682" 
 />
    <glyph glyph-name="notequal" unicode="&#x2260;" horiz-adv-x="1124" 
 />
    <glyph glyph-name="infinity" unicode="&#x221e;" horiz-adv-x="1460" 
 />
    <glyph glyph-name="plusminus" unicode="&#xb1;" horiz-adv-x="1124" 
 />
    <glyph glyph-name="lessequal" unicode="&#x2264;" horiz-adv-x="1124" 
 />
    <glyph glyph-name="greaterequal" unicode="&#x2265;" horiz-adv-x="1124" 
 />
    <glyph glyph-name="yen" unicode="&#xa5;" 
 />
    <glyph glyph-name="mu" unicode="&#xb5;" horiz-adv-x="1180" 
 />
    <glyph glyph-name="partialdiff" unicode="&#x2202;" horiz-adv-x="1012" 
 />
    <glyph glyph-name="summation" unicode="&#x2211;" horiz-adv-x="1460" 
 />
    <glyph glyph-name="product" unicode="&#x220f;" horiz-adv-x="1686" 
 />
    <glyph glyph-name=".notdef.001" horiz-adv-x="1536" 
d="M256 0v1280h1024v-1280h-1024zM288 32h960v1216h-960v-1216z" />
    <glyph glyph-name="integral" unicode="&#x222b;" horiz-adv-x="561" 
 />
    <glyph glyph-name="ordfeminine" unicode="&#xaa;" horiz-adv-x="758" 
 />
    <glyph glyph-name="ordmasculine" unicode="&#xba;" horiz-adv-x="748" 
 />
    <glyph glyph-name="Omega" unicode="&#x2126;" horiz-adv-x="1573" 
 />
    <glyph glyph-name="questiondown" unicode="&#xbf;" horiz-adv-x="1251" 
 />
    <glyph glyph-name="exclamdown" unicode="&#xa1;" horiz-adv-x="682" 
 />
    <glyph glyph-name="logicalnot" unicode="&#xac;" horiz-adv-x="1196" 
 />
    <glyph glyph-name="radical" unicode="&#x221a;" horiz-adv-x="1124" 
 />
    <glyph glyph-name="florin" unicode="&#x192;" 
 />
    <glyph glyph-name="approxequal" unicode="&#x2248;" horiz-adv-x="1124" 
 />
    <glyph glyph-name="Delta" unicode="&#x2206;" horiz-adv-x="1253" 
 />
    <glyph glyph-name="guillemotleft" unicode="&#xab;" 
 />
    <glyph glyph-name="guillemotright" unicode="&#xbb;" 
 />
    <glyph glyph-name="ellipsis" unicode="&#x2026;" horiz-adv-x="2048" 
 />
    <glyph glyph-name="OE" unicode="&#x152;" horiz-adv-x="2048" 
 />
    <glyph glyph-name="oe" unicode="&#x153;" horiz-adv-x="1933" 
 />
    <glyph glyph-name="endash" unicode="&#x2013;" 
 />
    <glyph glyph-name="emdash" unicode="&#x2014;" horiz-adv-x="2048" 
 />
    <glyph glyph-name="quotedblleft" unicode="&#x201c;" horiz-adv-x="682" 
 />
    <glyph glyph-name="quotedblright" unicode="&#x201d;" horiz-adv-x="682" 
 />
    <glyph glyph-name="quoteleft" unicode="&#x2018;" horiz-adv-x="455" 
 />
    <glyph glyph-name="quoteright" unicode="&#x2019;" horiz-adv-x="455" 
 />
    <glyph glyph-name="lozenge" unicode="&#x25ca;" horiz-adv-x="1012" 
 />
    <glyph glyph-name="Ydieresis" unicode="&#x178;" horiz-adv-x="1366" 
 />
    <glyph glyph-name="fraction" unicode="&#x2044;" horiz-adv-x="342" 
 />
    <glyph glyph-name="Euro" unicode="&#x20ac;" 
 />
    <glyph glyph-name="guilsinglleft" unicode="&#x2039;" horiz-adv-x="682" 
 />
    <glyph glyph-name="guilsinglright" unicode="&#x203a;" horiz-adv-x="682" 
 />
    <glyph glyph-name="uniF001" unicode="&#xf001;" horiz-adv-x="1024" 
 />
    <glyph glyph-name="uniF002" unicode="&#xf002;" horiz-adv-x="1024" 
 />
    <glyph glyph-name="daggerdbl" unicode="&#x2021;" 
 />
    <glyph glyph-name="periodcentered" unicode="&#xb7;" horiz-adv-x="569" 
 />
    <glyph glyph-name="quotesinglbase" unicode="&#x201a;" horiz-adv-x="455" 
 />
    <glyph glyph-name="quotedblbase" unicode="&#x201e;" horiz-adv-x="682" 
 />
    <glyph glyph-name="perthousand" unicode="&#x2030;" horiz-adv-x="2048" 
 />
    <glyph glyph-name="dotlessi" unicode="&#x131;" horiz-adv-x="569" 
 />
    <glyph glyph-name="circumflex" unicode="&#x2c6;" horiz-adv-x="682" 
 />
    <glyph glyph-name="tilde" unicode="&#x2dc;" horiz-adv-x="682" 
 />
    <glyph glyph-name="uni02C9" unicode="&#x2c9;" horiz-adv-x="682" 
 />
    <glyph glyph-name="breve" unicode="&#x2d8;" horiz-adv-x="682" 
 />
    <glyph glyph-name="dotaccent" unicode="&#x2d9;" horiz-adv-x="682" 
 />
    <glyph glyph-name="ring" unicode="&#x2da;" horiz-adv-x="682" 
 />
    <glyph glyph-name="cedilla" unicode="&#xb8;" horiz-adv-x="682" 
 />
    <glyph glyph-name="hungarumlaut" unicode="&#x2dd;" horiz-adv-x="682" 
 />
    <glyph glyph-name="ogonek" unicode="&#x2db;" horiz-adv-x="682" 
 />
    <glyph glyph-name="caron" unicode="&#x2c7;" horiz-adv-x="682" 
 />
    <glyph glyph-name="Lslash" unicode="&#x141;" 
 />
    <glyph glyph-name="lslash" unicode="&#x142;" horiz-adv-x="455" 
 />
    <glyph glyph-name="Scaron" unicode="&#x160;" horiz-adv-x="1366" 
 />
    <glyph glyph-name="scaron" unicode="&#x161;" horiz-adv-x="1024" 
 />
    <glyph glyph-name="Zcaron" unicode="&#x17d;" horiz-adv-x="1251" 
 />
    <glyph glyph-name="zcaron" unicode="&#x17e;" horiz-adv-x="1024" 
 />
    <glyph glyph-name="brokenbar" unicode="&#xa6;" horiz-adv-x="532" 
 />
    <glyph glyph-name="minus" unicode="&#x2212;" horiz-adv-x="1196" 
 />
    <glyph glyph-name="uni00B9" unicode="&#xb9;" horiz-adv-x="682" 
 />
    <glyph glyph-name="uni00B2" unicode="&#xb2;" horiz-adv-x="682" 
 />
    <glyph glyph-name="uni00B3" unicode="&#xb3;" horiz-adv-x="682" 
 />
    <glyph glyph-name="onehalf" unicode="&#xbd;" horiz-adv-x="1708" 
 />
    <glyph glyph-name="onequarter" unicode="&#xbc;" horiz-adv-x="1708" 
 />
    <glyph glyph-name="threequarters" unicode="&#xbe;" horiz-adv-x="1708" 
 />
    <glyph glyph-name="franc" unicode="&#x20a3;" 
 />
    <glyph glyph-name="Gbreve" unicode="&#x11e;" horiz-adv-x="1593" 
 />
    <glyph glyph-name="gbreve" unicode="&#x11f;" 
 />
    <glyph glyph-name="Idotaccent" unicode="&#x130;" horiz-adv-x="569" 
 />
    <glyph glyph-name="Scedilla" unicode="&#x15e;" horiz-adv-x="1366" 
 />
    <glyph glyph-name="scedilla" unicode="&#x15f;" horiz-adv-x="1024" 
 />
    <glyph glyph-name="Cacute" unicode="&#x106;" horiz-adv-x="1479" 
 />
    <glyph glyph-name="cacute" unicode="&#x107;" horiz-adv-x="1024" 
 />
    <glyph glyph-name="Ccaron" unicode="&#x10c;" horiz-adv-x="1479" 
 />
    <glyph glyph-name="ccaron" unicode="&#x10d;" horiz-adv-x="1024" 
 />
    <glyph glyph-name="dcroat" unicode="&#x111;" 
 />
    <glyph glyph-name="currency" unicode="&#xa4;" 
 />
    <glyph glyph-name="macron" unicode="&#xaf;" horiz-adv-x="1131" 
 />
    <glyph glyph-name="Amacron" unicode="&#x100;" horiz-adv-x="1366" 
 />
    <glyph glyph-name="amacron" unicode="&#x101;" 
 />
    <glyph glyph-name="Abreve" unicode="&#x102;" horiz-adv-x="1366" 
 />
    <glyph glyph-name="abreve" unicode="&#x103;" 
 />
    <glyph glyph-name="Aogonek" unicode="&#x104;" horiz-adv-x="1366" 
 />
    <glyph glyph-name="aogonek" unicode="&#x105;" 
 />
    <glyph glyph-name="Ccircumflex" unicode="&#x108;" horiz-adv-x="1479" 
 />
    <glyph glyph-name="ccircumflex" unicode="&#x109;" horiz-adv-x="1024" 
 />
    <glyph glyph-name="Cdotaccent" unicode="&#x10a;" horiz-adv-x="1479" 
 />
    <glyph glyph-name="cdotaccent" unicode="&#x10b;" horiz-adv-x="1024" 
 />
    <glyph glyph-name="Dcaron" unicode="&#x10e;" horiz-adv-x="1479" 
 />
    <glyph glyph-name="dcaron" unicode="&#x10f;" horiz-adv-x="1259" 
 />
    <glyph glyph-name="Dcroat" unicode="&#x110;" horiz-adv-x="1479" 
 />
    <glyph glyph-name="Emacron" unicode="&#x112;" horiz-adv-x="1366" 
 />
    <glyph glyph-name="emacron" unicode="&#x113;" 
 />
    <glyph glyph-name="Ebreve" unicode="&#x114;" horiz-adv-x="1366" 
 />
    <glyph glyph-name="ebreve" unicode="&#x115;" 
 />
    <glyph glyph-name="Edotaccent" unicode="&#x116;" horiz-adv-x="1366" 
 />
    <glyph glyph-name="edotaccent" unicode="&#x117;" 
 />
    <glyph glyph-name="Eogonek" unicode="&#x118;" horiz-adv-x="1366" 
 />
    <glyph glyph-name="eogonek" unicode="&#x119;" 
 />
    <glyph glyph-name="Ecaron" unicode="&#x11a;" horiz-adv-x="1366" 
 />
    <glyph glyph-name="ecaron" unicode="&#x11b;" 
 />
    <glyph glyph-name="Gcircumflex" unicode="&#x11c;" horiz-adv-x="1593" 
 />
    <glyph glyph-name="gcircumflex" unicode="&#x11d;" 
 />
    <glyph glyph-name="Gdotaccent" unicode="&#x120;" horiz-adv-x="1593" 
 />
    <glyph glyph-name="gdotaccent" unicode="&#x121;" 
 />
    <glyph glyph-name="Gcommaaccent" unicode="&#x122;" horiz-adv-x="1593" 
 />
    <glyph glyph-name="gcommaaccent" unicode="&#x123;" 
 />
    <glyph glyph-name="Hcircumflex" unicode="&#x124;" horiz-adv-x="1479" 
 />
    <glyph glyph-name="hcircumflex" unicode="&#x125;" 
 />
    <glyph glyph-name="Hbar" unicode="&#x126;" horiz-adv-x="1479" 
 />
    <glyph glyph-name="hbar" unicode="&#x127;" 
 />
    <glyph glyph-name="Itilde" unicode="&#x128;" horiz-adv-x="569" 
 />
    <glyph glyph-name="itilde" unicode="&#x129;" horiz-adv-x="569" 
 />
    <glyph glyph-name="Imacron" horiz-adv-x="569" 
 />
    <glyph glyph-name="imacron" unicode="&#x12b;" horiz-adv-x="569" 
 />
    <glyph glyph-name="Ibreve" unicode="&#x12c;" horiz-adv-x="569" 
 />
    <glyph glyph-name="ibreve" horiz-adv-x="569" 
 />
    <glyph glyph-name="Iogonek" unicode="&#x12e;" horiz-adv-x="569" 
 />
    <glyph glyph-name="iogonek" unicode="&#x12f;" horiz-adv-x="455" 
 />
    <glyph glyph-name="IJ" unicode="&#x132;" horiz-adv-x="1505" 
 />
    <glyph glyph-name="ij" unicode="&#x133;" horiz-adv-x="909" 
 />
    <glyph glyph-name="Jcircumflex" unicode="&#x134;" horiz-adv-x="1024" 
 />
    <glyph glyph-name="jcircumflex" unicode="&#x135;" horiz-adv-x="455" 
 />
    <glyph glyph-name="Kcommaaccent" unicode="&#x136;" horiz-adv-x="1366" 
 />
    <glyph glyph-name="kcommaaccent" unicode="&#x137;" horiz-adv-x="1024" 
 />
    <glyph glyph-name="kgreenlandic" unicode="&#x138;" horiz-adv-x="1024" 
 />
    <glyph glyph-name="Lacute" unicode="&#x139;" 
 />
    <glyph glyph-name="lacute" unicode="&#x13a;" horiz-adv-x="455" 
 />
    <glyph glyph-name="Lcommaaccent" unicode="&#x13b;" 
 />
    <glyph glyph-name="lcommaaccent" unicode="&#x13c;" horiz-adv-x="455" 
 />
    <glyph glyph-name="Lcaron" unicode="&#x13d;" 
 />
    <glyph glyph-name="lcaron" unicode="&#x13e;" horiz-adv-x="597" 
 />
    <glyph glyph-name="Ldot" unicode="&#x13f;" 
 />
    <glyph glyph-name="ldot" unicode="&#x140;" horiz-adv-x="684" 
 />
    <glyph glyph-name="Nacute" unicode="&#x143;" horiz-adv-x="1479" 
 />
    <glyph glyph-name="nacute" unicode="&#x144;" 
 />
    <glyph glyph-name="Ncommaaccent" unicode="&#x145;" horiz-adv-x="1479" 
 />
    <glyph glyph-name="ncommaaccent" unicode="&#x146;" 
 />
    <glyph glyph-name="Ncaron" unicode="&#x147;" horiz-adv-x="1479" 
 />
    <glyph glyph-name="ncaron" unicode="&#x148;" 
 />
    <glyph glyph-name="napostrophe" unicode="&#x149;" horiz-adv-x="1237" 
 />
    <glyph glyph-name="Eng" unicode="&#x14a;" horiz-adv-x="1481" 
 />
    <glyph glyph-name="eng" unicode="&#x14b;" 
 />
    <glyph glyph-name="Omacron" unicode="&#x14c;" horiz-adv-x="1593" 
 />
    <glyph glyph-name="omacron" unicode="&#x14d;" 
 />
    <glyph glyph-name="Obreve" unicode="&#x14e;" horiz-adv-x="1593" 
 />
    <glyph glyph-name="obreve" unicode="&#x14f;" 
 />
    <glyph glyph-name="Ohungarumlaut" unicode="&#x150;" horiz-adv-x="1593" 
 />
    <glyph glyph-name="ohungarumlaut" unicode="&#x151;" 
 />
    <glyph glyph-name="Racute" unicode="&#x154;" horiz-adv-x="1479" 
 />
    <glyph glyph-name="racute" unicode="&#x155;" horiz-adv-x="682" 
 />
    <glyph glyph-name="Rcommaaccent" unicode="&#x156;" horiz-adv-x="1479" 
 />
    <glyph glyph-name="rcommaaccent" unicode="&#x157;" horiz-adv-x="682" 
 />
    <glyph glyph-name="Rcaron" unicode="&#x158;" horiz-adv-x="1479" 
 />
    <glyph glyph-name="rcaron" unicode="&#x159;" horiz-adv-x="682" 
 />
    <glyph glyph-name="Sacute" unicode="&#x15a;" horiz-adv-x="1366" 
 />
    <glyph glyph-name="sacute" unicode="&#x15b;" horiz-adv-x="1024" 
 />
    <glyph glyph-name="Scircumflex" unicode="&#x15c;" horiz-adv-x="1366" 
 />
    <glyph glyph-name="scircumflex" unicode="&#x15d;" horiz-adv-x="1024" 
 />
    <glyph glyph-name="Tcommaaccent" unicode="&#x162;" horiz-adv-x="1251" 
 />
    <glyph glyph-name="tcommaaccent" unicode="&#x163;" horiz-adv-x="569" 
 />
    <glyph glyph-name="Tcaron" unicode="&#x164;" horiz-adv-x="1251" 
 />
    <glyph glyph-name="tcaron" unicode="&#x165;" horiz-adv-x="768" 
 />
    <glyph glyph-name="Tbar" unicode="&#x166;" horiz-adv-x="1251" 
 />
    <glyph glyph-name="tbar" unicode="&#x167;" horiz-adv-x="569" 
 />
    <glyph glyph-name="Utilde" unicode="&#x168;" horiz-adv-x="1479" 
 />
    <glyph glyph-name="utilde" unicode="&#x169;" 
 />
    <glyph glyph-name="Umacron" unicode="&#x16a;" horiz-adv-x="1479" 
 />
    <glyph glyph-name="umacron" unicode="&#x16b;" 
 />
    <glyph glyph-name="Ubreve" unicode="&#x16c;" horiz-adv-x="1479" 
 />
    <glyph glyph-name="ubreve" unicode="&#x16d;" 
 />
    <glyph glyph-name="Uring" unicode="&#x16e;" horiz-adv-x="1479" 
 />
    <glyph glyph-name="uring" unicode="&#x16f;" 
 />
    <glyph glyph-name="Uhungarumlaut" unicode="&#x170;" horiz-adv-x="1479" 
 />
    <glyph glyph-name="uhungarumlaut" unicode="&#x171;" 
 />
    <glyph glyph-name="Uogonek" unicode="&#x172;" horiz-adv-x="1479" 
 />
    <glyph glyph-name="uogonek" unicode="&#x173;" 
 />
    <glyph glyph-name="Wcircumflex" unicode="&#x174;" horiz-adv-x="1933" 
 />
    <glyph glyph-name="wcircumflex" unicode="&#x175;" horiz-adv-x="1479" 
 />
    <glyph glyph-name="Ycircumflex" unicode="&#x176;" horiz-adv-x="1366" 
 />
    <glyph glyph-name="ycircumflex" unicode="&#x177;" horiz-adv-x="1024" 
 />
    <glyph glyph-name="Zacute" unicode="&#x179;" horiz-adv-x="1251" 
 />
    <glyph glyph-name="zacute" unicode="&#x17a;" horiz-adv-x="1024" 
 />
    <glyph glyph-name="Zdotaccent" unicode="&#x17b;" horiz-adv-x="1251" 
 />
    <glyph glyph-name="zdotaccent" unicode="&#x17c;" horiz-adv-x="1024" 
 />
    <glyph glyph-name="longs" unicode="&#x17f;" horiz-adv-x="455" 
 />
    <glyph glyph-name="Aringacute" unicode="&#x1fa;" horiz-adv-x="1366" 
 />
    <glyph glyph-name="aringacute" unicode="&#x1fb;" 
 />
    <glyph glyph-name="AEacute" unicode="&#x1fc;" horiz-adv-x="2048" 
 />
    <glyph glyph-name="aeacute" unicode="&#x1fd;" horiz-adv-x="1821" 
 />
    <glyph glyph-name="Oslashacute" unicode="&#x1fe;" horiz-adv-x="1593" 
 />
    <glyph glyph-name="oslashacute" unicode="&#x1ff;" horiz-adv-x="1251" 
 />
    <glyph glyph-name="tonos" unicode="&#x384;" horiz-adv-x="682" 
 />
    <glyph glyph-name="dieresistonos" unicode="&#x385;" horiz-adv-x="682" 
 />
    <glyph glyph-name="Alphatonos" unicode="&#x386;" horiz-adv-x="1367" 
 />
    <glyph glyph-name="anoteleia" unicode="&#x387;" horiz-adv-x="569" 
 />
    <glyph glyph-name="Epsilontonos" unicode="&#x388;" horiz-adv-x="1606" 
 />
    <glyph glyph-name="Etatonos" unicode="&#x389;" horiz-adv-x="1716" 
 />
    <glyph glyph-name="Iotatonos" unicode="&#x38a;" horiz-adv-x="786" 
 />
    <glyph glyph-name="Omicrontonos" unicode="&#x38c;" horiz-adv-x="1586" 
 />
    <glyph glyph-name="Upsilontonos" unicode="&#x38e;" horiz-adv-x="1752" 
 />
    <glyph glyph-name="Omegatonos" unicode="&#x38f;" horiz-adv-x="1541" 
 />
    <glyph glyph-name="iotadieresistonos" unicode="&#x390;" horiz-adv-x="455" 
 />
    <glyph glyph-name="Alpha" unicode="&#x391;" horiz-adv-x="1366" 
 />
    <glyph glyph-name="Beta" unicode="&#x392;" horiz-adv-x="1366" 
 />
    <glyph glyph-name="Gamma" unicode="&#x393;" horiz-adv-x="1128" 
 />
    <glyph glyph-name="uni0394" unicode="&#x394;" horiz-adv-x="1368" 
 />
    <glyph glyph-name="Epsilon" unicode="&#x395;" horiz-adv-x="1366" 
 />
    <glyph glyph-name="Zeta" unicode="&#x396;" horiz-adv-x="1251" 
 />
    <glyph glyph-name="Eta" unicode="&#x397;" horiz-adv-x="1479" 
 />
    <glyph glyph-name="Theta" unicode="&#x398;" horiz-adv-x="1593" 
 />
    <glyph glyph-name="Iota" unicode="&#x399;" horiz-adv-x="569" 
 />
    <glyph glyph-name="Kappa" unicode="&#x39a;" horiz-adv-x="1366" 
 />
    <glyph glyph-name="Lambda" unicode="&#x39b;" horiz-adv-x="1368" 
 />
    <glyph glyph-name="Mu" unicode="&#x39c;" horiz-adv-x="1706" 
 />
    <glyph glyph-name="Nu" unicode="&#x39d;" horiz-adv-x="1479" 
 />
    <glyph glyph-name="Xi" unicode="&#x39e;" horiz-adv-x="1331" 
 />
    <glyph glyph-name="Omicron" unicode="&#x39f;" horiz-adv-x="1593" 
 />
    <glyph glyph-name="Pi" unicode="&#x3a0;" horiz-adv-x="1479" 
 />
    <glyph glyph-name="Rho" unicode="&#x3a1;" horiz-adv-x="1366" 
 />
    <glyph glyph-name="Sigma" unicode="&#x3a3;" horiz-adv-x="1266" 
 />
    <glyph glyph-name="Tau" unicode="&#x3a4;" horiz-adv-x="1251" 
 />
    <glyph glyph-name="Upsilon" unicode="&#x3a5;" horiz-adv-x="1366" 
 />
    <glyph glyph-name="Phi" unicode="&#x3a6;" horiz-adv-x="1634" 
 />
    <glyph glyph-name="Chi" unicode="&#x3a7;" horiz-adv-x="1366" 
 />
    <glyph glyph-name="Psi" unicode="&#x3a8;" horiz-adv-x="1711" 
 />
    <glyph glyph-name="uni03A9" unicode="&#x3a9;" horiz-adv-x="1531" 
 />
    <glyph glyph-name="Iotadieresis" unicode="&#x3aa;" horiz-adv-x="569" 
 />
    <glyph glyph-name="Upsilondieresis" unicode="&#x3ab;" horiz-adv-x="1366" 
 />
    <glyph glyph-name="alphatonos" unicode="&#x3ac;" horiz-adv-x="1184" 
 />
    <glyph glyph-name="epsilontonos" unicode="&#x3ad;" horiz-adv-x="913" 
 />
    <glyph glyph-name="etatonos" unicode="&#x3ae;" 
 />
    <glyph glyph-name="iotatonos" unicode="&#x3af;" horiz-adv-x="455" 
 />
    <glyph glyph-name="upsilondieresistonos" unicode="&#x3b0;" horiz-adv-x="1120" 
 />
    <glyph glyph-name="alpha" unicode="&#x3b1;" horiz-adv-x="1184" 
 />
    <glyph glyph-name="beta" unicode="&#x3b2;" horiz-adv-x="1178" 
 />
    <glyph glyph-name="gamma" unicode="&#x3b3;" horiz-adv-x="1024" 
 />
    <glyph glyph-name="delta" unicode="&#x3b4;" horiz-adv-x="1140" 
 />
    <glyph glyph-name="epsilon" unicode="&#x3b5;" horiz-adv-x="913" 
 />
    <glyph glyph-name="zeta" unicode="&#x3b6;" horiz-adv-x="903" 
 />
    <glyph glyph-name="eta" unicode="&#x3b7;" 
 />
    <glyph glyph-name="theta" unicode="&#x3b8;" 
 />
    <glyph glyph-name="iota" unicode="&#x3b9;" horiz-adv-x="455" 
 />
    <glyph glyph-name="kappa" unicode="&#x3ba;" horiz-adv-x="1024" 
 />
    <glyph glyph-name="lambda" unicode="&#x3bb;" horiz-adv-x="1024" 
 />
    <glyph glyph-name="uni03BC" unicode="&#x3bc;" horiz-adv-x="1180" 
 />
    <glyph glyph-name="nu" unicode="&#x3bd;" horiz-adv-x="1024" 
 />
    <glyph glyph-name="xi" unicode="&#x3be;" horiz-adv-x="917" 
 />
    <glyph glyph-name="omicron" unicode="&#x3bf;" 
 />
    <glyph glyph-name="pi" unicode="&#x3c0;" horiz-adv-x="1413" 
 />
    <glyph glyph-name="rho" unicode="&#x3c1;" horiz-adv-x="1165" 
 />
    <glyph glyph-name="sigma1" unicode="&#x3c2;" horiz-adv-x="987" 
 />
    <glyph glyph-name="sigma" unicode="&#x3c3;" horiz-adv-x="1264" 
 />
    <glyph glyph-name="tau" unicode="&#x3c4;" horiz-adv-x="809" 
 />
    <glyph glyph-name="upsilon" unicode="&#x3c5;" horiz-adv-x="1120" 
 />
    <glyph glyph-name="phi" unicode="&#x3c6;" horiz-adv-x="1328" 
 />
    <glyph glyph-name="chi" unicode="&#x3c7;" horiz-adv-x="1075" 
 />
    <glyph glyph-name="psi" unicode="&#x3c8;" horiz-adv-x="1460" 
 />
    <glyph glyph-name="omega" unicode="&#x3c9;" horiz-adv-x="1599" 
 />
    <glyph glyph-name="iotadieresis" unicode="&#x3ca;" horiz-adv-x="455" 
 />
    <glyph glyph-name="upsilondieresis" unicode="&#x3cb;" horiz-adv-x="1120" 
 />
    <glyph glyph-name="omicrontonos" unicode="&#x3cc;" 
 />
    <glyph glyph-name="upsilontonos" unicode="&#x3cd;" horiz-adv-x="1120" 
 />
    <glyph glyph-name="omegatonos" unicode="&#x3ce;" horiz-adv-x="1599" 
 />
    <glyph glyph-name="afii10023" unicode="&#x401;" horiz-adv-x="1367" 
 />
    <glyph glyph-name="afii10051" unicode="&#x402;" horiz-adv-x="1771" 
 />
    <glyph glyph-name="afii10052" unicode="&#x403;" horiz-adv-x="1109" 
 />
    <glyph glyph-name="afii10053" unicode="&#x404;" horiz-adv-x="1472" 
 />
    <glyph glyph-name="afii10054" unicode="&#x405;" horiz-adv-x="1366" 
 />
    <glyph glyph-name="afii10055" unicode="&#x406;" horiz-adv-x="569" 
 />
    <glyph glyph-name="afii10056" unicode="&#x407;" horiz-adv-x="569" 
 />
    <glyph glyph-name="afii10057" unicode="&#x408;" horiz-adv-x="1024" 
 />
    <glyph glyph-name="afii10058" unicode="&#x409;" horiz-adv-x="2165" 
 />
    <glyph glyph-name="afii10059" unicode="&#x40a;" horiz-adv-x="2069" 
 />
    <glyph glyph-name="afii10060" unicode="&#x40b;" horiz-adv-x="1749" 
 />
    <glyph glyph-name="afii10061" unicode="&#x40c;" horiz-adv-x="1193" 
 />
    <glyph glyph-name="afii10062" unicode="&#x40e;" horiz-adv-x="1301" 
 />
    <glyph glyph-name="afii10145" unicode="&#x40f;" horiz-adv-x="1472" 
 />
    <glyph glyph-name="afii10017" unicode="&#x410;" horiz-adv-x="1366" 
 />
    <glyph glyph-name="afii10018" unicode="&#x411;" horiz-adv-x="1344" 
 />
    <glyph glyph-name="afii10019" unicode="&#x412;" horiz-adv-x="1366" 
 />
    <glyph glyph-name="afii10020" unicode="&#x413;" horiz-adv-x="1109" 
 />
    <glyph glyph-name="afii10021" unicode="&#x414;" horiz-adv-x="1387" 
 />
    <glyph glyph-name="afii10022" unicode="&#x415;" horiz-adv-x="1366" 
 />
    <glyph glyph-name="afii10024" unicode="&#x416;" horiz-adv-x="1891" 
 />
    <glyph glyph-name="afii10025" unicode="&#x417;" horiz-adv-x="1237" 
 />
    <glyph glyph-name="afii10026" unicode="&#x418;" horiz-adv-x="1472" 
 />
    <glyph glyph-name="afii10027" unicode="&#x419;" horiz-adv-x="1472" 
 />
    <glyph glyph-name="afii10028" unicode="&#x41a;" horiz-adv-x="1193" 
 />
    <glyph glyph-name="afii10029" unicode="&#x41b;" horiz-adv-x="1344" 
 />
    <glyph glyph-name="afii10030" unicode="&#x41c;" horiz-adv-x="1706" 
 />
    <glyph glyph-name="afii10031" unicode="&#x41d;" horiz-adv-x="1479" 
 />
    <glyph glyph-name="afii10032" unicode="&#x41e;" horiz-adv-x="1593" 
 />
    <glyph glyph-name="afii10033" unicode="&#x41f;" horiz-adv-x="1472" 
 />
    <glyph glyph-name="afii10034" unicode="&#x420;" horiz-adv-x="1366" 
 />
    <glyph glyph-name="afii10035" unicode="&#x421;" horiz-adv-x="1479" 
 />
    <glyph glyph-name="afii10036" unicode="&#x422;" horiz-adv-x="1251" 
 />
    <glyph glyph-name="afii10037" unicode="&#x423;" horiz-adv-x="1301" 
 />
    <glyph glyph-name="afii10038" unicode="&#x424;" horiz-adv-x="1557" 
 />
    <glyph glyph-name="afii10039" unicode="&#x425;" horiz-adv-x="1366" 
 />
    <glyph glyph-name="afii10040" unicode="&#x426;" horiz-adv-x="1515" 
 />
    <glyph glyph-name="afii10041" unicode="&#x427;" horiz-adv-x="1365" 
 />
    <glyph glyph-name="afii10042" unicode="&#x428;" horiz-adv-x="1877" 
 />
    <glyph glyph-name="afii10043" unicode="&#x429;" horiz-adv-x="1920" 
 />
    <glyph glyph-name="afii10044" unicode="&#x42a;" horiz-adv-x="1621" 
 />
    <glyph glyph-name="afii10045" unicode="&#x42b;" horiz-adv-x="1813" 
 />
    <glyph glyph-name="afii10046" unicode="&#x42c;" horiz-adv-x="1344" 
 />
    <glyph glyph-name="afii10047" unicode="&#x42d;" horiz-adv-x="1472" 
 />
    <glyph glyph-name="afii10048" unicode="&#x42e;" horiz-adv-x="2069" 
 />
    <glyph glyph-name="afii10049" unicode="&#x42f;" horiz-adv-x="1479" 
 />
    <glyph glyph-name="afii10065" unicode="&#x430;" 
 />
    <glyph glyph-name="afii10066" unicode="&#x431;" horiz-adv-x="1173" 
 />
    <glyph glyph-name="afii10067" unicode="&#x432;" horiz-adv-x="1088" 
 />
    <glyph glyph-name="afii10068" unicode="&#x433;" horiz-adv-x="747" 
 />
    <glyph glyph-name="afii10069" unicode="&#x434;" horiz-adv-x="1195" 
 />
    <glyph glyph-name="afii10070" unicode="&#x435;" 
 />
    <glyph glyph-name="afii10072" unicode="&#x436;" horiz-adv-x="1370" 
 />
    <glyph glyph-name="afii10073" unicode="&#x437;" horiz-adv-x="939" 
 />
    <glyph glyph-name="afii10074" unicode="&#x438;" horiz-adv-x="1144" 
 />
    <glyph glyph-name="afii10075" unicode="&#x439;" horiz-adv-x="1144" 
 />
    <glyph glyph-name="afii10076" unicode="&#x43a;" horiz-adv-x="896" 
 />
    <glyph glyph-name="afii10077" unicode="&#x43b;" horiz-adv-x="1195" 
 />
    <glyph glyph-name="afii10078" unicode="&#x43c;" horiz-adv-x="1408" 
 />
    <glyph glyph-name="afii10079" unicode="&#x43d;" horiz-adv-x="1131" 
 />
    <glyph glyph-name="afii10080" unicode="&#x43e;" 
 />
    <glyph glyph-name="afii10081" unicode="&#x43f;" horiz-adv-x="1109" 
 />
    <glyph glyph-name="afii10082" unicode="&#x440;" 
 />
    <glyph glyph-name="afii10083" unicode="&#x441;" horiz-adv-x="1024" 
 />
    <glyph glyph-name="afii10084" unicode="&#x442;" horiz-adv-x="938" 
 />
    <glyph glyph-name="afii10085" unicode="&#x443;" horiz-adv-x="1024" 
 />
    <glyph glyph-name="afii10086" unicode="&#x444;" horiz-adv-x="1685" 
 />
    <glyph glyph-name="afii10087" unicode="&#x445;" horiz-adv-x="1024" 
 />
    <glyph glyph-name="afii10088" unicode="&#x446;" horiz-adv-x="1173" 
 />
    <glyph glyph-name="afii10089" unicode="&#x447;" horiz-adv-x="1067" 
 />
    <glyph glyph-name="afii10090" unicode="&#x448;" horiz-adv-x="1643" 
 />
    <glyph glyph-name="afii10091" unicode="&#x449;" horiz-adv-x="1685" 
 />
    <glyph glyph-name="afii10092" unicode="&#x44a;" horiz-adv-x="1280" 
 />
    <glyph glyph-name="afii10093" unicode="&#x44b;" horiz-adv-x="1472" 
 />
    <glyph glyph-name="afii10094" unicode="&#x44c;" horiz-adv-x="1067" 
 />
    <glyph glyph-name="afii10095" unicode="&#x44d;" horiz-adv-x="1045" 
 />
    <glyph glyph-name="afii10096" unicode="&#x44e;" horiz-adv-x="1536" 
 />
    <glyph glyph-name="afii10097" unicode="&#x44f;" horiz-adv-x="1109" 
 />
    <glyph glyph-name="afii10071" unicode="&#x451;" 
 />
    <glyph glyph-name="afii10099" unicode="&#x452;" 
 />
    <glyph glyph-name="afii10100" unicode="&#x453;" horiz-adv-x="747" 
 />
    <glyph glyph-name="afii10101" unicode="&#x454;" horiz-adv-x="1045" 
 />
    <glyph glyph-name="afii10102" unicode="&#x455;" horiz-adv-x="1024" 
 />
    <glyph glyph-name="afii10103" unicode="&#x456;" horiz-adv-x="455" 
 />
    <glyph glyph-name="afii10104" unicode="&#x457;" horiz-adv-x="569" 
 />
    <glyph glyph-name="afii10105" unicode="&#x458;" horiz-adv-x="455" 
 />
    <glyph glyph-name="afii10106" unicode="&#x459;" horiz-adv-x="1856" 
 />
    <glyph glyph-name="afii10107" unicode="&#x45a;" horiz-adv-x="1664" 
 />
    <glyph glyph-name="afii10108" unicode="&#x45b;" 
 />
    <glyph glyph-name="afii10109" unicode="&#x45c;" horiz-adv-x="896" 
 />
    <glyph glyph-name="afii10110" unicode="&#x45e;" horiz-adv-x="1024" 
 />
    <glyph glyph-name="afii10193" unicode="&#x45f;" horiz-adv-x="1131" 
 />
    <glyph glyph-name="afii10050" unicode="&#x490;" horiz-adv-x="1001" 
 />
    <glyph glyph-name="afii10098" unicode="&#x491;" horiz-adv-x="842" 
 />
    <glyph glyph-name="Wgrave" unicode="&#x1e80;" horiz-adv-x="1933" 
 />
    <glyph glyph-name="wgrave" unicode="&#x1e81;" horiz-adv-x="1479" 
 />
    <glyph glyph-name="Wacute" unicode="&#x1e82;" horiz-adv-x="1933" 
 />
    <glyph glyph-name="wacute" unicode="&#x1e83;" horiz-adv-x="1479" 
 />
    <glyph glyph-name="Wdieresis" unicode="&#x1e84;" horiz-adv-x="1933" 
 />
    <glyph glyph-name="wdieresis" unicode="&#x1e85;" horiz-adv-x="1479" 
 />
    <glyph glyph-name="Ygrave" unicode="&#x1ef2;" horiz-adv-x="1366" 
 />
    <glyph glyph-name="ygrave" unicode="&#x1ef3;" horiz-adv-x="1024" 
 />
    <glyph glyph-name="afii00208" unicode="&#x2015;" horiz-adv-x="2048" 
 />
    <glyph glyph-name="underscoredbl" unicode="&#x2017;" horiz-adv-x="1131" 
 />
    <glyph glyph-name="quotereversed" unicode="&#x201b;" horiz-adv-x="455" 
 />
    <glyph glyph-name="minute" unicode="&#x2032;" horiz-adv-x="384" 
 />
    <glyph glyph-name="second" unicode="&#x2033;" horiz-adv-x="725" 
 />
    <glyph glyph-name="exclamdbl" unicode="&#x203c;" horiz-adv-x="1024" 
 />
    <glyph glyph-name="uni203E" unicode="&#x203e;" horiz-adv-x="682" 
 />
    <glyph glyph-name="uni207F" unicode="&#x207f;" horiz-adv-x="747" 
 />
    <glyph glyph-name="lira" unicode="&#x20a4;" 
 />
    <glyph glyph-name="peseta" unicode="&#x20a7;" horiz-adv-x="2240" 
 />
    <glyph glyph-name="afii61248" unicode="&#x2105;" horiz-adv-x="1813" 
 />
    <glyph glyph-name="afii61289" unicode="&#x2113;" horiz-adv-x="662" 
 />
    <glyph glyph-name="afii61352" unicode="&#x2116;" horiz-adv-x="2197" 
 />
    <glyph glyph-name="estimated" unicode="&#x212e;" horiz-adv-x="1229" 
 />
    <glyph glyph-name="oneeighth" unicode="&#x215b;" horiz-adv-x="1708" 
 />
    <glyph glyph-name="threeeighths" unicode="&#x215c;" horiz-adv-x="1708" 
 />
    <glyph glyph-name="fiveeighths" unicode="&#x215d;" horiz-adv-x="1708" 
 />
    <glyph glyph-name="seveneighths" unicode="&#x215e;" horiz-adv-x="1708" 
 />
    <glyph glyph-name="arrowleft" unicode="&#x2190;" horiz-adv-x="2048" 
 />
    <glyph glyph-name="arrowup" unicode="&#x2191;" horiz-adv-x="1024" 
 />
    <glyph glyph-name="arrowright" unicode="&#x2192;" horiz-adv-x="2048" 
 />
    <glyph glyph-name="arrowdown" unicode="&#x2193;" horiz-adv-x="1024" 
 />
    <glyph glyph-name="arrowboth" unicode="&#x2194;" horiz-adv-x="2048" 
 />
    <glyph glyph-name="arrowupdn" unicode="&#x2195;" horiz-adv-x="1024" 
 />
    <glyph glyph-name="arrowupdnbse" unicode="&#x21a8;" horiz-adv-x="1024" 
 />
    <glyph glyph-name="orthogonal" unicode="&#x221f;" horiz-adv-x="2005" 
 />
    <glyph glyph-name="intersection" unicode="&#x2229;" horiz-adv-x="1472" 
 />
    <glyph glyph-name="equivalence" unicode="&#x2261;" horiz-adv-x="1195" 
 />
    <glyph glyph-name="house" unicode="&#x2302;" horiz-adv-x="1237" 
 />
    <glyph glyph-name="revlogicalnot" unicode="&#x2310;" horiz-adv-x="1196" 
 />
    <glyph glyph-name="integraltp" unicode="&#x2320;" horiz-adv-x="1237" 
 />
    <glyph glyph-name="integralbt" unicode="&#x2321;" horiz-adv-x="1237" 
 />
    <glyph glyph-name="SF100000" unicode="&#x2500;" horiz-adv-x="1451" 
 />
    <glyph glyph-name="SF110000" unicode="&#x2502;" horiz-adv-x="1280" 
 />
    <glyph glyph-name="SF010000" unicode="&#x250c;" horiz-adv-x="1451" 
 />
    <glyph glyph-name="SF030000" unicode="&#x2510;" horiz-adv-x="1451" 
 />
    <glyph glyph-name="SF020000" unicode="&#x2514;" horiz-adv-x="1451" 
 />
    <glyph glyph-name="SF040000" unicode="&#x2518;" horiz-adv-x="1451" 
 />
    <glyph glyph-name="SF080000" unicode="&#x251c;" horiz-adv-x="1451" 
 />
    <glyph glyph-name="SF090000" unicode="&#x2524;" horiz-adv-x="1451" 
 />
    <glyph glyph-name="SF060000" unicode="&#x252c;" horiz-adv-x="1451" 
 />
    <glyph glyph-name="SF070000" unicode="&#x2534;" horiz-adv-x="1451" 
 />
    <glyph glyph-name="SF050000" unicode="&#x253c;" horiz-adv-x="1451" 
 />
    <glyph glyph-name="SF430000" unicode="&#x2550;" horiz-adv-x="1451" 
 />
    <glyph glyph-name="SF240000" unicode="&#x2551;" horiz-adv-x="1451" 
 />
    <glyph glyph-name="SF510000" unicode="&#x2552;" horiz-adv-x="1451" 
 />
    <glyph glyph-name="SF520000" unicode="&#x2553;" horiz-adv-x="1451" 
 />
    <glyph glyph-name="SF390000" unicode="&#x2554;" horiz-adv-x="1451" 
 />
    <glyph glyph-name="SF220000" unicode="&#x2555;" horiz-adv-x="1451" 
 />
    <glyph glyph-name="SF210000" unicode="&#x2556;" horiz-adv-x="1451" 
 />
    <glyph glyph-name="SF250000" unicode="&#x2557;" horiz-adv-x="1451" 
 />
    <glyph glyph-name="SF500000" unicode="&#x2558;" horiz-adv-x="1451" 
 />
    <glyph glyph-name="SF490000" unicode="&#x2559;" horiz-adv-x="1451" 
 />
    <glyph glyph-name="SF380000" unicode="&#x255a;" horiz-adv-x="1451" 
 />
    <glyph glyph-name="SF280000" unicode="&#x255b;" horiz-adv-x="1451" 
 />
    <glyph glyph-name="SF270000" unicode="&#x255c;" horiz-adv-x="1451" 
 />
    <glyph glyph-name="SF260000" unicode="&#x255d;" horiz-adv-x="1451" 
 />
    <glyph glyph-name="SF360000" unicode="&#x255e;" horiz-adv-x="1451" 
 />
    <glyph glyph-name="SF370000" unicode="&#x255f;" horiz-adv-x="1451" 
 />
    <glyph glyph-name="SF420000" unicode="&#x2560;" horiz-adv-x="1451" 
 />
    <glyph glyph-name="SF190000" unicode="&#x2561;" horiz-adv-x="1451" 
 />
    <glyph glyph-name="SF200000" unicode="&#x2562;" horiz-adv-x="1451" 
 />
    <glyph glyph-name="SF230000" unicode="&#x2563;" horiz-adv-x="1451" 
 />
    <glyph glyph-name="SF470000" unicode="&#x2564;" horiz-adv-x="1451" 
 />
    <glyph glyph-name="SF480000" unicode="&#x2565;" horiz-adv-x="1451" 
 />
    <glyph glyph-name="SF410000" unicode="&#x2566;" horiz-adv-x="1451" 
 />
    <glyph glyph-name="SF450000" unicode="&#x2567;" horiz-adv-x="1451" 
 />
    <glyph glyph-name="SF460000" unicode="&#x2568;" horiz-adv-x="1451" 
 />
    <glyph glyph-name="SF400000" unicode="&#x2569;" horiz-adv-x="1451" 
 />
    <glyph glyph-name="SF540000" unicode="&#x256a;" horiz-adv-x="1451" 
 />
    <glyph glyph-name="SF530000" unicode="&#x256b;" horiz-adv-x="1451" 
 />
    <glyph glyph-name="SF440000" unicode="&#x256c;" horiz-adv-x="1451" 
 />
    <glyph glyph-name="upblock" unicode="&#x2580;" horiz-adv-x="1451" 
 />
    <glyph glyph-name="dnblock" unicode="&#x2584;" horiz-adv-x="1451" 
 />
    <glyph glyph-name="block" unicode="&#x2588;" horiz-adv-x="1451" 
 />
    <glyph glyph-name="lfblock" unicode="&#x258c;" horiz-adv-x="1451" 
 />
    <glyph glyph-name="rtblock" unicode="&#x2590;" horiz-adv-x="1451" 
 />
    <glyph glyph-name="ltshade" unicode="&#x2591;" horiz-adv-x="1451" 
 />
    <glyph glyph-name="shade" unicode="&#x2592;" horiz-adv-x="1451" 
 />
    <glyph glyph-name="dkshade" unicode="&#x2593;" horiz-adv-x="1493" 
 />
    <glyph glyph-name="filledbox" unicode="&#x25a0;" horiz-adv-x="1237" 
 />
    <glyph glyph-name="H22073" unicode="&#x25a1;" horiz-adv-x="1237" 
 />
    <glyph glyph-name="H18543" unicode="&#x25aa;" horiz-adv-x="726" 
 />
    <glyph glyph-name="H18551" unicode="&#x25ab;" horiz-adv-x="726" 
 />
    <glyph glyph-name="filledrect" unicode="&#x25ac;" horiz-adv-x="2048" 
 />
    <glyph glyph-name="triagup" unicode="&#x25b2;" horiz-adv-x="2027" 
 />
    <glyph glyph-name="triagrt" unicode="&#x25ba;" horiz-adv-x="2027" 
 />
    <glyph glyph-name="triagdn" unicode="&#x25bc;" horiz-adv-x="2027" 
 />
    <glyph glyph-name="triaglf" unicode="&#x25c4;" horiz-adv-x="2027" 
 />
    <glyph glyph-name="circle" unicode="&#x25cb;" horiz-adv-x="1237" 
 />
    <glyph glyph-name="H18533" unicode="&#x25cf;" horiz-adv-x="1237" 
 />
    <glyph glyph-name="invbullet" unicode="&#x25d8;" horiz-adv-x="1237" 
 />
    <glyph glyph-name="invcircle" unicode="&#x25d9;" horiz-adv-x="1237" 
 />
    <glyph glyph-name="openbullet" unicode="&#x25e6;" horiz-adv-x="726" 
 />
    <glyph glyph-name="smileface" unicode="&#x263a;" horiz-adv-x="2091" 
 />
    <glyph glyph-name="invsmileface" unicode="&#x263b;" horiz-adv-x="2155" 
 />
    <glyph glyph-name="sun" unicode="&#x263c;" horiz-adv-x="1877" 
 />
    <glyph glyph-name="female" unicode="&#x2640;" horiz-adv-x="1536" 
 />
    <glyph glyph-name="male" unicode="&#x2642;" horiz-adv-x="1536" 
 />
    <glyph glyph-name="spade" unicode="&#x2660;" horiz-adv-x="1088" 
 />
    <glyph glyph-name="club" unicode="&#x2663;" horiz-adv-x="1344" 
 />
    <glyph glyph-name="heart" unicode="&#x2665;" horiz-adv-x="1216" 
 />
    <glyph glyph-name="diamond" unicode="&#x2666;" horiz-adv-x="1045" 
 />
    <glyph glyph-name="musicalnote" unicode="&#x266a;" horiz-adv-x="1024" 
 />
    <glyph glyph-name="musicalnotedbl" unicode="&#x266b;" horiz-adv-x="1536" 
 />
    <glyph glyph-name="uniF004" unicode="&#xf004;" horiz-adv-x="682" 
 />
    <glyph glyph-name="uniF005" unicode="&#xf005;" horiz-adv-x="682" 
 />
    <glyph glyph-name="Acircumflex" unicode="&#xc2;" horiz-adv-x="2397" 
d="M1158 1493q20 0 20 -34l11 -11h124l93 11q51 -14 51 -33q0 -23 -196 -56q0 -57 -21 -57l590 -1009q0 -96 165 -112q31 0 79 -26q-70 -42 -141 -42l21 -44q242 -14 258 -68v-11l-21 -22l-144 22l-73 -11l-134 11h-103q-57 0 -83 45v22l124 12q-21 118 -310 527
q-66 157 -83 157h-506q-248 -237 -248 -382q0 -194 -145 -302l166 -3l-21 -54l-103 -29l-82 8l-83 15l-210 -13l-144 23q-6 19 -9 41l21 23h134l155 202l64 103q87 155 277 480q215 219 341 471h-113l-21 23q50 78 114 78h134zM1199 1302v-11q52 -183 83 -191v12l-73 190
h-10zM1127 1201q0 -45 -197 -314v-11l11 11h10l372 11l-145 270l-41 33h-10zM1065 820v-11h299v11l-10 11v11q-94 -22 -289 -22zM1416 842v-11q76 -160 176 -280v22q-107 224 -176 269zM403 259l10 -56h11q93 70 93 146q-49 -19 -114 -90zM1747 293v-12l93 -190h31v11
q-105 187 -124 191zM238 80h10l62 22l21 112zM444 136v-12h21l52 45v45zM382 102v-11h21v11h-21zM648 1488l509 336l461 -316l-456 177z" />
    <glyph glyph-name="Adieresis" unicode="&#xc4;" horiz-adv-x="2397" 
d="M1158 1493q20 0 20 -34l11 -11h124l93 11q51 -14 51 -33q0 -23 -196 -56q0 -57 -21 -57l590 -1009q0 -96 165 -112q31 0 79 -26q-70 -42 -141 -42l21 -44q242 -14 258 -68v-11l-21 -22l-144 22l-73 -11l-134 11h-103q-57 0 -83 45v22l124 12q-21 118 -310 527
q-66 157 -83 157h-506q-248 -237 -248 -382q0 -194 -145 -302l166 -3l-21 -54l-103 -29l-82 8l-83 15l-210 -13l-144 23q-6 19 -9 41l21 23h134l155 202l64 103q87 155 277 480q215 219 341 471h-113l-21 23q50 78 114 78h134zM1199 1302v-11q52 -183 83 -191v12l-73 190
h-10zM1127 1201q0 -45 -197 -314v-11l11 11h10l372 11l-145 270l-41 33h-10zM1065 820v-11h299v11l-10 11v11q-94 -22 -289 -22zM1416 842v-11q76 -160 176 -280v22q-107 224 -176 269zM403 259l10 -56h11q93 70 93 146q-49 -19 -114 -90zM1747 293v-12l93 -190h31v11
q-105 187 -124 191zM238 80h10l62 22l21 112zM444 136v-12h21l52 45v45zM382 102v-11h21v11h-21zM802 1709q96 -14 96 -102q-28 -81 -135 -81q-62 26 -67 51v20q0 112 106 112zM749 1624v-10l20 -20h29v11q-15 39 -29 39zM1456 1700q96 -14 96 -102q-28 -81 -135 -81
q-62 27 -67 51v20q0 112 106 112zM1407 1621v-10l19 -20h29v11q-14 39 -29 39z" />
    <glyph glyph-name="Ucircumflex" unicode="&#xdb;" horiz-adv-x="1903" 
d="M927 1q-210 -6 -374 96q-239 190 -318.5 459t-32.5 512l-46 296l-154 5q-2 49 3 66l118 23l171 -13l68 15l67 8l84 -28l18 -51l-136 -2q-56 -62 -24 -521q27 -280 175 -432q57 -161 202 -250.5t237 -94.5t227 187t176.5 366t71.5 415q25 234 -77 305l-164 11l-8 57
q22 42 67 42h85l91 -5l78 5l118 21l17 -21v-11q-13 -50 -111 -91q20 -478 -57 -750t-192.5 -406t-180.5 -170t-199 -43zM235 897l2 -111q15 -111 90 -328zM1463 705l-57 -123q-37 -118 -151 -287q147 150 208 410zM572 204q-163 164 -229 331l38 -160q78 -87 191 -171z
M733 54l-4 10l-139 127l-115 81l136 -111q107 -111 122 -107zM278 1240l12 131l-64 -8l32 -43zM408 1499l427 269l500 -279l-491 178z" />
    <glyph glyph-name="Edieresis" unicode="&#xcb;" horiz-adv-x="1411" 
d="M126 1531h10q151 0 231 -34l355 11h22l366 -23h63q73 0 73 -127q23 0 42 -81q-10 -81 -32 -81q-52 70 -198 150h-105l-94 35l-252 -12h-167q-21 -97 -21 -254v-174h21l178 -34q49 0 210 104h41v-12q-41 -76 -41 -150q0 -38 51 -92q0 -23 -31 -23q-162 81 -251 81h-199
l-21 -23v-139l-10 -404q130 -81 230 -81q132 35 429 46q85 31 220 196h42l21 -23l-31 -92v-34l21 -93q-8 -128 -43 -128l-135 70q-95 -34 -100 -28.5t-16 5.5q-65 -47 -136 -47l-125 12l-179 -23l-135 11h-43q-39 -34 -94 -34h-251v23q62 65 84 127q31 0 31 219l10 221
l-20 68v139l20 128v253l21 116q-82 127 -167 127l-21 34v12q0 28 126 58zM91 1438q2 33 -31 34t31 -34zM377 1439q-34 -9 42 -12q51 5 -42 12zM163 1396l25 -50q21 -14 11 23zM769 846l5 58q-15 -31 -27.5 -36t22.5 -22zM440 874l65 -8l61 -2q-55 10 -97 21q-21 0 -29 -11z
M188 262q0 -59 11 -87q0 50 -11 87zM378 168l-24 -19l47 6q8 20 -23 13zM680 113q32 -3 90 -3t110 11.5t111 31.5q-153 -8 -311 -40zM151 58q59 29 59 40.5t-5.5 11.5t-53.5 -52zM444 96q111 2 152 14q-125 0 -152 -14zM384 1738q96 -14 96 -102q-28 -81 -135 -81
q-62 26 -67 51v20q0 112 106 112zM331 1653v-10l20 -20h29v11q-15 39 -29 39zM1038 1729q96 -14 96 -102q-28 -81 -135 -81q-62 27 -67 51v20q0 112 106 112zM989 1650v-10l19 -20h29v11q-14 39 -29 39z" />
    <glyph glyph-name="Iacute" unicode="&#xcd;" horiz-adv-x="695" 
d="M19 1511l235 -12h116l18 -24l-1 -64l-11 -13q-68 1 -93 -54v-37l-10 -753q40 -207 30.5 -230.5t6 -86t74.5 -146.5l35 -39l-12 -47h-79l-149 8l-115 -12q-44 23 -48 47v13q96 100 96 179q-35 118 3 661q-29 227 -29 406q-5 96 -77 96l-9 12v60zM58 1462l73 -2l-53 13
q-20 0 -20 -11zM101 1369l35 -74q-4 61 -35 74zM251 1059l-2 177q-10 63 -10 15t12 -192zM159 762q-1 -95 1 -290q8 266 -1 290zM266 238q19 -49 53 -141q-37 141 -53 141zM513 1751q40 -61 -8.5 -116.5t-388.5 -98.5q246 142 254.5 171.5t19.5 44.5l11 9q61 51 112 -10z
M453 1720l-5 -7l4 -23l18 -15l4 7q7 35 -1 42z" />
    <glyph glyph-name="Odieresis" unicode="&#xd6;" horiz-adv-x="1511" 
d="M561 1469l220 -36l122 12q61 -9 61 -37l-12 -12v-12q187 -101 342 -522v-98l-12 -60l24 -243q-61 -225 -183 -304q-160 -102 -439 -146l-62 -12h-219q-354 88 -394 446q-9 76 -9 161v61q36 438 110 438q40 0 97 121q175 207 232 207zM525 230q334 0 488 146q78 8 147 97
v73q0 485 -391 777h-49q-98 0 -386 -289q-37 -94 -49 -243q-56 0 -38.5 -176t78.5 -224t200 -161zM829 1367v-12l27 -30l64 -14l-52 60zM966 1287q231 -364 231 -462h24v56q-117 266 -255 406zM146 315v-12q0 -106 269 -219l61 -12h122q0 31 -268 85q-171 111 -171 158h-13z
M671 145v-12l82 -32q225 32 377 167.5t104 348.5q-69 -480 -563 -472zM331 1699q96 -14 96 -102q-28 -81 -135 -81q-62 26 -67 51v20q0 112 106 112zM278 1614v-10l20 -20h29v11q-15 39 -29 39zM985 1690q96 -14 96 -102q-28 -81 -135 -81q-62 27 -67 51v20q0 112 106 112z
M936 1611v-10l19 -20h29v11q-14 39 -29 39z" />
    <glyph glyph-name="Udieresis" unicode="&#xdc;" horiz-adv-x="1798" 
d="M927 1q-210 -6 -374 96q-239 190 -318.5 459t-32.5 512l-46 296l-154 5q-2 49 3 66l118 23l171 -13l68 15l67 8l84 -28l18 -51l-136 -2q-56 -62 -24 -521q27 -280 175 -432q57 -161 202 -250.5t237 -94.5t227 187t176.5 366t71.5 415q25 234 -77 305l-164 11l-8 57
q22 42 67 42h85l91 -5l78 5l118 21l17 -21v-11q-13 -50 -111 -91q20 -478 -57 -750t-192.5 -406t-180.5 -170t-199 -43zM235 897l2 -111q15 -111 90 -328zM1463 705l-57 -123q-37 -118 -151 -287q147 150 208 410zM572 204q-163 164 -229 331l38 -160q78 -87 191 -171z
M733 54l-4 10l-139 127l-115 81l136 -111q107 -111 122 -107zM278 1240l12 131l-64 -8l32 -43zM551 1733q96 -14 96 -102q-28 -81 -135 -81q-62 26 -67 51v20q0 112 106 112zM498 1648v-10l20 -20h29v11q-15 39 -29 39zM1205 1724q96 -14 96 -102q-28 -81 -135 -81
q-62 27 -67 51v20q0 112 106 112zM1156 1645v-10l19 -20h29v11q-14 39 -29 39z" />
    <glyph glyph-name="Aacute" unicode="&#xc1;" horiz-adv-x="2397" 
d="M1158 1493q20 0 20 -34l11 -11h124l93 11q51 -14 51 -33q0 -23 -196 -56q0 -57 -21 -57l590 -1009q0 -96 165 -112q31 0 79 -26q-70 -42 -141 -42l21 -44q242 -14 258 -68v-11l-21 -22l-144 22l-73 -11l-134 11h-103q-57 0 -83 45v22l124 12q-21 118 -310 527
q-66 157 -83 157h-506q-248 -237 -248 -382q0 -194 -145 -302l166 -3l-21 -54l-103 -29l-82 8l-83 15l-210 -13l-144 23q-6 19 -9 41l21 23h134l155 202l64 103q87 155 277 480q215 219 341 471h-113l-21 23q50 78 114 78h134zM1199 1302v-11q52 -183 83 -191v12l-73 190
h-10zM1127 1201q0 -45 -197 -314v-11l11 11h10l372 11l-145 270l-41 33h-10zM1065 820v-11h299v11l-10 11v11q-94 -22 -289 -22zM1416 842v-11q76 -160 176 -280v22q-107 224 -176 269zM403 259l10 -56h11q93 70 93 146q-49 -19 -114 -90zM1747 293v-12l93 -190h31v11
q-105 187 -124 191zM238 80h10l62 22l21 112zM444 136v-12h21l52 45v45zM382 102v-11h21v11h-21zM1432 1760q40 -61 -8.5 -116.5t-388.5 -98.5q246 142 254.5 171.5t19.5 44.5l11 9q61 51 112 -10z" />
    <glyph glyph-name="Eacute" unicode="&#xc9;" horiz-adv-x="1509" 
d="M126 1531h10q151 0 231 -34l355 11h22l366 -23h63q73 0 73 -127q23 0 42 -81q-10 -81 -32 -81q-52 70 -198 150h-105l-94 35l-252 -12h-167q-21 -97 -21 -254v-174h21l178 -34q49 0 210 104h41v-12q-41 -76 -41 -150q0 -38 51 -92q0 -23 -31 -23q-162 81 -251 81h-199
l-21 -23v-139l-10 -404q130 -81 230 -81q132 35 429 46q85 31 220 196h42l21 -23l-31 -92v-34l21 -93q-8 -128 -43 -128l-135 70q-95 -34 -100 -28.5t-16 5.5q-65 -47 -136 -47l-125 12l-179 -23l-135 11h-43q-39 -34 -94 -34h-251v23q62 65 84 127q31 0 31 219l10 221
l-20 68v139l20 128v253l21 116q-82 127 -167 127l-21 34v12q0 28 126 58zM91 1438q2 33 -31 34t31 -34zM377 1439q-34 -9 42 -12q51 5 -42 12zM163 1396l25 -50q21 -14 11 23zM769 846l5 58q-15 -31 -27.5 -36t22.5 -22zM440 874l65 -8l61 -2q-55 10 -97 21q-21 0 -29 -11z
M188 262q0 -59 11 -87q0 50 -11 87zM378 168l-24 -19l47 6q8 20 -23 13zM680 113q32 -3 90 -3t110 11.5t111 31.5q-153 -8 -311 -40zM151 58q59 29 59 40.5t-5.5 11.5t-53.5 -52zM444 96q111 2 152 14q-125 0 -152 -14zM933 1746q40 -61 -8.5 -116.5t-388.5 -98.5
q246 142 254.5 171.5t19.5 44.5l11 9q61 51 112 -10zM873 1715l-5 -7l4 -23l18 -15l4 7q7 35 -1 42z" />
    <glyph glyph-name="Oacute" unicode="&#xd3;" horiz-adv-x="1513" 
d="M561 1469l220 -36l122 12q61 -9 61 -37l-12 -12v-12q187 -101 342 -522v-98l-12 -60l24 -243q-61 -225 -183 -304q-160 -102 -439 -146l-62 -12h-219q-354 88 -394 446q-9 76 -9 161v61q36 438 110 438q40 0 97 121q175 207 232 207zM525 230q334 0 488 146q78 8 147 97
v73q0 485 -391 777h-49q-98 0 -386 -289q-37 -94 -49 -243q-56 0 -38.5 -176t78.5 -224t200 -161zM829 1367v-12l27 -30l64 -14l-52 60zM966 1287q231 -364 231 -462h24v56q-117 266 -255 406zM146 315v-12q0 -106 269 -219l61 -12h122q0 31 -268 85q-171 111 -171 158h-13z
M671 145v-12l82 -32q225 32 377 167.5t104 348.5q-69 -480 -563 -472zM914 1732q40 -61 -8.5 -116.5t-388.5 -98.5q246 142 254.5 171.5t19.5 44.5l11 9q61 51 112 -10zM854 1701l-5 -7l4 -23l18 -15l4 7q7 35 -1 42z" />
    <glyph glyph-name="Uacute" unicode="&#xda;" horiz-adv-x="1899" 
d="M927 1q-210 -6 -374 96q-239 190 -318.5 459t-32.5 512l-46 296l-154 5q-2 49 3 66l118 23l171 -13l68 15l67 8l84 -28l18 -51l-136 -2q-56 -62 -24 -521q27 -280 175 -432q57 -161 202 -250.5t237 -94.5t227 187t176.5 366t71.5 415q25 234 -77 305l-164 11l-8 57
q22 42 67 42h85l91 -5l78 5l118 21l17 -21v-11q-13 -50 -111 -91q20 -478 -57 -750t-192.5 -406t-180.5 -170t-199 -43zM235 897l2 -111q15 -111 90 -328zM1463 705l-57 -123q-37 -118 -151 -287q147 150 208 410zM572 204q-163 164 -229 331l38 -160q78 -87 191 -171z
M733 54l-4 10l-139 127l-115 81l136 -111q107 -111 122 -107zM278 1240l12 131l-64 -8l32 -43zM1101 1727q40 -61 -8.5 -116.5t-388.5 -98.5q246 142 254.5 171.5t19.5 44.5l11 9q61 51 112 -10zM1041 1696l-5 -7l4 -23l18 -15l4 7q7 35 -1 42z" />
    <glyph glyph-name="acircumflex" unicode="&#xe2;" horiz-adv-x="1603" 
d="M729 1574q13 0 13 -24l6 -8h78l59 8q32 -11 32 -24q0 -17 -123 -41q0 -40 -13 -40l370 -727q0 -69 104 -81q20 0 50 -19q-44 -29 -89 -29l13 -33q153 -10 163 -48v-8l-13 -16l-91 16l-46 -8l-84 8h-65q-36 0 -52 32v16l78 8q-13 86 -195 380q-42 113 -52 113h-319
q-156 -170 -156 -275q0 -140 -91 -218l104 -1l-13 -40l-65 -21l-51 6l-53 11l-132 -9l-90 17q-4 13 -6 29l13 17h85l97 145l40 74q55 112 175 346q135 158 214 339h-71l-13 16q32 57 71 57h85zM755 1437v-8q32 -132 52 -138v8l-46 138h-6zM709 1364q0 -32 -124 -226v-8l7 8
h6l235 8l-91 194l-26 24h-7zM670 1089v-8h189v8l-7 9v8q-59 -17 -182 -17zM891 1106v-8q48 -116 111 -202v16q-67 161 -111 194zM254 686l6 -41h7q58 51 58 105q-30 -13 -71 -64zM1099 710v-8l59 -137h19v8q-66 134 -78 137zM150 556h6l39 17l13 80zM280 597v-8h13l32 32v32
zM241 573v-8h13v8h-13zM384 1608l312 192l297 -201l-307 91z" />
    <glyph glyph-name="adieresis" unicode="&#xe4;" horiz-adv-x="1590" 
d="M729 1574q13 0 13 -24l6 -8h78l59 8q32 -11 32 -24q0 -17 -123 -41q0 -40 -13 -40l370 -727q0 -69 104 -81q20 0 50 -19q-44 -29 -89 -29l13 -33q153 -10 163 -48v-8l-13 -16l-91 16l-46 -8l-84 8h-65q-36 0 -52 32v16l78 8q-13 86 -195 380q-42 113 -52 113h-319
q-156 -170 -156 -275q0 -140 -91 -218l104 -1l-13 -40l-65 -21l-51 6l-53 11l-132 -9l-90 17q-4 13 -6 29l13 17h85l97 145l40 74q55 112 175 346q135 158 214 339h-71l-13 16q32 57 71 57h85zM755 1437v-8q32 -132 52 -138v8l-46 138h-6zM709 1364q0 -32 -124 -226v-8l7 8
h6l235 8l-91 194l-26 24h-7zM670 1089v-8h189v8l-7 9v8q-59 -17 -182 -17zM891 1106v-8q48 -116 111 -202v16q-67 161 -111 194zM254 686l6 -41h7q58 51 58 105q-30 -13 -71 -64zM1099 710v-8l59 -137h19v8q-66 134 -78 137zM150 556h6l39 17l13 80zM280 597v-8h13l32 32v32
zM241 573v-8h13v8h-13zM932 1762q78 -11 78 -88q-23 -70 -110 -70q-50 23 -54 44v17q0 97 86 97zM901 1692v-9l16 -17h23v9q-12 34 -23 34zM512 1759q78 -12 78 -88q-23 -71 -109 -71q-50 23 -55 44v18q0 97 86 97zM482 1677v-9l16 -17h23v9q-12 35 -23 35z" />
    <glyph glyph-name="iacute" unicode="&#xed;" horiz-adv-x="605" 
d="M16 1471l197 -8h97l16 -15l-1 -42l-9 -8q-58 1 -79 -35v-24l-7 -487q33 -134 25 -149t5 -55.5t63 -95.5l29 -25l-10 -30l-67 -1l-125 6l-97 -8q-36 15 -39 31v8q80 64 80 116q-30 76 2 427q-24 148 -24 263q-4 63 -64 63l-8 7v39zM32 1448l61 -1l-45 8q-16 0 -16 -7z
M85 1380l30 -48q-4 39 -30 48zM211 1179l-1 115q-10 40 -10 9t11 -124zM133 987q0 -62 1 -188q7 172 -1 188zM223 648q16 -32 45 -92q-31 92 -45 92zM396 1655q32 -49 -7.5 -93t-315.5 -78q199 113 206 136.5t16 34.5l9 8q50 40 92 -8zM346 1630l-3 -5l3 -19l14 -11l4 5
q6 28 -1 33z" />
    <glyph glyph-name="odieresis" unicode="&#xf6;" horiz-adv-x="1190" 
d="M423 1514l166 -26l92 8q46 -6 46 -26l-10 -9v-8q141 -74 258 -378v-70l-9 -44l18 -175q-46 -163 -138 -220q-120 -73 -331 -105l-46 -9h-166q-266 63 -296 322q-7 55 -7 117v44q27 316 83 316q30 0 73 87q132 150 175 150zM395 619q253 0 368 105q59 6 111 70v53
q0 350 -295 562h-36q-74 0 -291 -209q-28 -68 -37 -176q-42 0 -29 -127t59 -162t150 -116zM625 1440v-8l20 -22l48 -10l-39 43zM728 1382q174 -263 174 -333h18v40q-88 193 -192 293zM110 680v-9q0 -76 203 -158l46 -8h92q0 22 -203 61q-128 80 -128 114h-10zM506 557v-8
l62 -24q169 24 283.5 121.5t78.5 251.5q-52 -346 -424 -341zM745 1709q78 -11 78 -88q-23 -70 -110 -70q-50 23 -54 44v17q0 97 86 97zM714 1639v-9l16 -17h23v9q-12 34 -23 34zM325 1706q78 -12 78 -88q-23 -71 -109 -71q-50 23 -55 44v18q0 97 86 97zM295 1624v-9l16 -17
h23v9q-12 35 -23 35z" />
    <glyph glyph-name="udieresis" unicode="&#xfc;" horiz-adv-x="1190" 
d="M614 517q-139 -5 -248 70q-158 139 -210.5 335.5t-21.5 373.5l-31 217l-102 3q-1 36 2 49l78 16l114 -9l45 10l44 6l56 -20l11 -38l-90 -1q-36 -45 -15 -380q18 -205 116 -316q38 -118 133.5 -183t157 -68.5t150.5 136.5t116.5 267t47.5 303q17 171 -51 223l-109 8l-5 41
q15 31 45 31h56l60 -4l52 4l78 16l11 -16v-7q-8 -37 -73 -67q13 -349 -38 -548t-127.5 -297t-119.5 -124t-132 -31zM156 1171l1 -81q10 -81 60 -240zM969 1031l-38 -90q-24 -86 -100 -210q98 110 138 300zM379 665q-108 120 -152 242l26 -117q51 -64 126 -125zM486 556l-3 6
l-92 94l-76 59l90 -82q71 -80 81 -77zM184 1422l8 96l-42 -7l21 -30zM788 1784q78 -12 78 -88q-23 -71 -110 -71q-50 23 -54 45v17q0 97 86 97zM757 1714v-9l15 -18h24v9q-12 35 -24 35zM368 1780q78 -11 78 -88q-23 -70 -110 -70q-50 23 -54 44v17q0 97 86 97zM338 1699v-9
l16 -17h23v9q-12 34 -23 34z" />
    <glyph glyph-name="eacute" unicode="&#xe9;" horiz-adv-x="1199" 
d="M96 1603h8q116 0 176 -25l272 8h17l280 -16h48q56 0 56 -91q18 0 32 -58q-8 -58 -24 -58q-41 50 -152 107h-81l-71 25l-192 -8h-128q-17 -70 -17 -183v-124h17l135 -25q38 0 161 75h31v-9q-31 -54 -31 -107q0 -27 39 -66q0 -17 -23 -17q-124 58 -192 58h-153l-16 -16
v-100l-8 -290q100 -58 177 -58q101 25 328 33q64 23 168 141h32l16 -17l-24 -66v-24l16 -67q-6 -91 -32 -91l-104 49q-72 -24 -76 -20t-12 4q-50 -33 -105 -33l-95 8l-137 -16l-103 8h-33q-30 -25 -72 -25h-192v17q48 46 64 91q24 0 24 157l8 158l-16 49v100l16 91v182
l16 83q-63 92 -128 92l-16 24v9q0 20 96 41zM70 1536q1 24 -24.5 25t24.5 -25zM288 1537q-26 -7 32 -8q40 3 -32 8zM125 1506l19 -36q16 -9 8 17zM588 1111l4 42q-11 -22 -20.5 -25.5t16.5 -16.5zM337 1131l49 -5l47 -2q-42 7 -75 16q-16 0 -21 -9zM144 692q0 -42 8 -62
q0 36 -8 62zM289 625l-18 -14l36 5q6 14 -18 9zM520 585q24 -2 68.5 -2t84.5 8.5t85 23.5q-117 -6 -238 -30zM115 547q45 20 45 28t-4 8t-41 -36zM340 574q84 1 116 9q-96 0 -116 -9zM755 1799q40 -61 -8.5 -116.5t-388.5 -98.5q246 142 254.5 171.5t19.5 44.5l11 9
q61 51 112 -10zM695 1768l-5 -7l4 -23l18 -15l4 7q7 35 -1 42z" />
    <glyph glyph-name="uacute" unicode="&#xfa;" horiz-adv-x="1199" 
d="M614 517q-139 -5 -248 70q-158 139 -210.5 335.5t-21.5 373.5l-31 217l-102 3q-1 36 2 49l78 16l114 -9l45 10l44 6l56 -20l11 -38l-90 -1q-36 -45 -15 -380q18 -205 116 -316q38 -118 133.5 -183t157 -68.5t150.5 136.5t116.5 267t47.5 303q17 171 -51 223l-109 8l-5 41
q15 31 45 31h56l60 -4l52 4l78 16l11 -16v-7q-8 -37 -73 -67q13 -349 -38 -548t-127.5 -297t-119.5 -124t-132 -31zM156 1171l1 -81q10 -81 60 -240zM969 1031l-38 -90q-24 -86 -100 -210q98 110 138 300zM379 665q-108 120 -152 242l26 -117q51 -64 126 -125zM486 556l-3 6
l-92 94l-76 59l90 -82q71 -80 81 -77zM184 1422l8 96l-42 -7l21 -30zM784 1746q39 -61 -9 -116.5t-388 -98.5q245 142 254 171.5t20 44.5l10 9q62 51 113 -10zM723 1715l-4 -7l4 -23l17 -15l5 7q7 35 -2 42z" />
    <glyph glyph-name="ucircumflex" unicode="&#xfb;" horiz-adv-x="1311" 
d="M614 517q-139 -5 -248 70q-158 139 -210.5 335.5t-21.5 373.5l-31 217l-102 3q-1 36 2 49l78 16l114 -9l45 10l44 6l56 -20l11 -38l-90 -1q-36 -45 -15 -380q18 -205 116 -316q38 -118 133.5 -183t157 -68.5t150.5 136.5t116.5 267t47.5 303q17 171 -51 223l-109 8l-5 41
q15 31 45 31h56l60 -4l52 4l78 16l11 -16v-7q-8 -37 -73 -67q13 -349 -38 -548t-127.5 -297t-119.5 -124t-132 -31zM156 1171l1 -81q10 -81 60 -240zM969 1031l-38 -90q-24 -86 -100 -210q98 110 138 300zM379 665q-108 120 -152 242l26 -117q51 -64 126 -125zM486 556l-3 6
l-92 94l-76 59l90 -82q71 -80 81 -77zM184 1422l8 96l-42 -7l21 -30zM249 1632l284 144l316 -153l-302 77z" />
    <glyph glyph-name="oacute" unicode="&#xf3;" horiz-adv-x="1199" 
d="M423 1514l166 -26l92 8q46 -6 46 -26l-10 -9v-8q141 -74 258 -378v-70l-9 -44l18 -175q-46 -163 -138 -220q-120 -73 -331 -105l-46 -9h-166q-266 63 -296 322q-7 55 -7 117v44q27 316 83 316q30 0 73 87q132 150 175 150zM395 619q253 0 368 105q59 6 111 70v53
q0 350 -295 562h-36q-74 0 -291 -209q-28 -68 -37 -176q-42 0 -29 -127t59 -162t150 -116zM625 1440v-8l20 -22l48 -10l-39 43zM728 1382q174 -263 174 -333h18v40q-88 193 -192 293zM110 680v-9q0 -76 203 -158l46 -8h92q0 22 -203 61q-128 80 -128 114h-10zM506 557v-8
l62 -24q169 24 283.5 121.5t78.5 251.5q-52 -346 -424 -341zM760 1741q40 -61 -8.5 -116.5t-388.5 -98.5q246 142 254.5 171.5t19.5 44.5l11 9q61 51 112 -10zM700 1710l-5 -7l4 -23l18 -15l4 7q7 35 -1 42z" />
    <glyph glyph-name="edieresis" unicode="&#xeb;" horiz-adv-x="1199" 
d="M96 1603h8q116 0 176 -25l272 8h17l280 -16h48q56 0 56 -91q18 0 32 -58q-8 -58 -24 -58q-41 50 -152 107h-81l-71 25l-192 -8h-128q-17 -70 -17 -183v-124h17l135 -25q38 0 161 75h31v-9q-31 -54 -31 -107q0 -27 39 -66q0 -17 -23 -17q-124 58 -192 58h-153l-16 -16
v-100l-8 -290q100 -58 177 -58q101 25 328 33q64 23 168 141h32l16 -17l-24 -66v-24l16 -67q-6 -91 -32 -91l-104 49q-72 -24 -76 -20t-12 4q-50 -33 -105 -33l-95 8l-137 -16l-103 8h-33q-30 -25 -72 -25h-192v17q48 46 64 91q24 0 24 157l8 158l-16 49v100l16 91v182
l16 83q-63 92 -128 92l-16 24v9q0 20 96 41zM70 1536q1 24 -24.5 25t24.5 -25zM288 1537q-26 -7 32 -8q40 3 -32 8zM125 1506l19 -36q16 -9 8 17zM588 1111l4 42q-11 -22 -20.5 -25.5t16.5 -16.5zM337 1131l49 -5l47 -2q-42 7 -75 16q-16 0 -21 -9zM144 692q0 -42 8 -62
q0 36 -8 62zM289 625l-18 -14l36 5q6 14 -18 9zM520 585q24 -2 68.5 -2t84.5 8.5t85 23.5q-117 -6 -238 -30zM115 547q45 20 45 28t-4 8t-41 -36zM340 574q84 1 116 9q-96 0 -116 -9zM369 1761q78 -11 78 -88q-23 -70 -110 -70q-50 23 -54 44v17q0 97 86 97zM338 1691v-9
l16 -17h23v9q-12 34 -23 34zM717 1767q78 -12 78 -88q-23 -71 -109 -71q-50 23 -55 44v18q0 97 86 97zM687 1685v-9l16 -17h23v9q-12 35 -23 35z" />
  </font>
</defs>
</svg>
